<mxfile host="app.diagrams.net" agent="Mozilla/5.0 (Windows NT 10.0; Win64; x64; rv:136.0) Gecko/20100101 Firefox/136.0" version="26.1.3">
  <diagram name="Page-1" id="eUtmEOKAuvWHEtzbapg-">
    <mxGraphModel grid="1" page="1" gridSize="10" guides="1" tooltips="1" connect="1" arrows="1" fold="1" pageScale="1" pageWidth="4000" pageHeight="2000" background="none" math="0" shadow="0">
      <root>
        <mxCell id="0" />
        <mxCell id="1" parent="0" />
        <mxCell id="59eEeYQ3Ve1wWNyKsLEn-43" value="" style="endArrow=classic;html=1;rounded=0;entryX=1;entryY=0.5;entryDx=0;entryDy=0;" edge="1" parent="1">
          <mxGeometry width="50" height="50" relative="1" as="geometry">
            <mxPoint x="1620" y="606" as="sourcePoint" />
            <mxPoint x="1593" y="606" as="targetPoint" />
          </mxGeometry>
        </mxCell>
        <mxCell id="59eEeYQ3Ve1wWNyKsLEn-45" value="" style="endArrow=classic;html=1;rounded=0;entryX=1;entryY=0.5;entryDx=0;entryDy=0;" edge="1" parent="1">
          <mxGeometry width="50" height="50" relative="1" as="geometry">
            <mxPoint x="1620" y="753" as="sourcePoint" />
            <mxPoint x="1593" y="753" as="targetPoint" />
          </mxGeometry>
        </mxCell>
        <mxCell id="59eEeYQ3Ve1wWNyKsLEn-46" value="" style="endArrow=classic;html=1;rounded=0;entryX=1;entryY=0.5;entryDx=0;entryDy=0;" edge="1" parent="1">
          <mxGeometry width="50" height="50" relative="1" as="geometry">
            <mxPoint x="1620" y="903" as="sourcePoint" />
            <mxPoint x="1593" y="903" as="targetPoint" />
          </mxGeometry>
        </mxCell>
        <mxCell id="59eEeYQ3Ve1wWNyKsLEn-47" value="" style="endArrow=classic;html=1;rounded=0;entryX=1;entryY=0.5;entryDx=0;entryDy=0;" edge="1" parent="1">
          <mxGeometry width="50" height="50" relative="1" as="geometry">
            <mxPoint x="1621" y="1055" as="sourcePoint" />
            <mxPoint x="1594" y="1055" as="targetPoint" />
          </mxGeometry>
        </mxCell>
        <mxCell id="9TAhi3XfBYmtLasGSoGz-72" value="" style="edgeStyle=orthogonalEdgeStyle;rounded=0;orthogonalLoop=1;jettySize=auto;html=1;" edge="1" parent="1" target="9TAhi3XfBYmtLasGSoGz-71">
          <mxGeometry relative="1" as="geometry">
            <Array as="points" />
            <mxPoint x="739" y="917.5000000000002" as="sourcePoint" />
            <mxPoint x="799" y="843" as="targetPoint" />
          </mxGeometry>
        </mxCell>
        <mxCell id="9TAhi3XfBYmtLasGSoGz-73" value="instr" style="edgeLabel;html=1;align=center;verticalAlign=middle;resizable=0;points=[];" connectable="0" vertex="1" parent="9TAhi3XfBYmtLasGSoGz-72">
          <mxGeometry x="-0.2639" y="-2" relative="1" as="geometry">
            <mxPoint x="3" y="-11" as="offset" />
          </mxGeometry>
        </mxCell>
        <mxCell id="2Y-T_WITprWG7Eant2bq-1" value="&lt;font style=&quot;font-size: 17px;&quot;&gt;&lt;b&gt;IF/ID&lt;/b&gt;&lt;/font&gt;" style="rounded=0;whiteSpace=wrap;html=1;" vertex="1" parent="1">
          <mxGeometry x="679" y="527" width="60" height="560" as="geometry" />
        </mxCell>
        <mxCell id="tmGiLWiuq_pXPjT5mu-G-52" style="edgeStyle=orthogonalEdgeStyle;rounded=0;orthogonalLoop=1;jettySize=auto;html=1;entryX=0.5;entryY=0;entryDx=0;entryDy=0;" edge="1" parent="1" source="2Y-T_WITprWG7Eant2bq-2" target="tmGiLWiuq_pXPjT5mu-G-26">
          <mxGeometry relative="1" as="geometry">
            <mxPoint x="510" y="657" as="targetPoint" />
          </mxGeometry>
        </mxCell>
        <mxCell id="2Y-T_WITprWG7Eant2bq-2" value="&lt;font style=&quot;font-size: 16px;&quot;&gt;&lt;b&gt;PC&lt;/b&gt;&lt;/font&gt;" style="whiteSpace=wrap;html=1;aspect=fixed;" vertex="1" parent="1">
          <mxGeometry x="340" y="606" width="80" height="80" as="geometry" />
        </mxCell>
        <mxCell id="Lo2Uv1aopZFOO-q884Ed-3" value="&lt;font style=&quot;font-size: 16px;&quot;&gt;&lt;b&gt;INSTRUCTION&amp;nbsp;&lt;/b&gt;&lt;/font&gt;&lt;div&gt;&lt;font style=&quot;font-size: 16px;&quot;&gt;&lt;b&gt;MEMORY&lt;/b&gt;&lt;/font&gt;&lt;/div&gt;" style="rounded=0;whiteSpace=wrap;html=1;" vertex="1" parent="1">
          <mxGeometry x="170" y="1290" width="430" height="80" as="geometry" />
        </mxCell>
        <mxCell id="Lo2Uv1aopZFOO-q884Ed-5" value="+" style="shape=step;perimeter=stepPerimeter;whiteSpace=wrap;html=1;fixedSize=1;fontStyle=1" vertex="1" parent="1">
          <mxGeometry x="120" y="685" width="60" height="80" as="geometry" />
        </mxCell>
        <mxCell id="tmGiLWiuq_pXPjT5mu-G-34" value="" style="edgeStyle=orthogonalEdgeStyle;rounded=0;orthogonalLoop=1;jettySize=auto;html=1;" edge="1" parent="1" source="Lo2Uv1aopZFOO-q884Ed-7" target="Lo2Uv1aopZFOO-q884Ed-5">
          <mxGeometry relative="1" as="geometry">
            <Array as="points">
              <mxPoint x="130" y="705" />
              <mxPoint x="130" y="705" />
            </Array>
          </mxGeometry>
        </mxCell>
        <mxCell id="Lo2Uv1aopZFOO-q884Ed-7" value="&lt;font style=&quot;font-size: 15px;&quot;&gt;&lt;b&gt;4&lt;/b&gt;&lt;/font&gt;" style="rounded=0;whiteSpace=wrap;html=1;" vertex="1" parent="1">
          <mxGeometry x="50" y="685" width="40" height="40" as="geometry" />
        </mxCell>
        <mxCell id="tmGiLWiuq_pXPjT5mu-G-43" style="edgeStyle=orthogonalEdgeStyle;rounded=0;orthogonalLoop=1;jettySize=auto;html=1;entryX=0.5;entryY=1;entryDx=0;entryDy=0;" edge="1" parent="1" source="Lo2Uv1aopZFOO-q884Ed-31" target="tmGiLWiuq_pXPjT5mu-G-25">
          <mxGeometry relative="1" as="geometry" />
        </mxCell>
        <mxCell id="Lo2Uv1aopZFOO-q884Ed-31" value="Target Addr." style="rounded=0;whiteSpace=wrap;html=1;fontStyle=1" vertex="1" parent="1">
          <mxGeometry x="50" y="626" width="60" height="40" as="geometry" />
        </mxCell>
        <mxCell id="tmGiLWiuq_pXPjT5mu-G-6" value="&lt;b&gt;PRF&lt;/b&gt;" style="rounded=0;whiteSpace=wrap;html=1;direction=south;" vertex="1" parent="1">
          <mxGeometry x="1039" y="220" width="230" height="130" as="geometry" />
        </mxCell>
        <mxCell id="tmGiLWiuq_pXPjT5mu-G-7" value="&lt;b&gt;RAT + ARF&lt;/b&gt;" style="rounded=0;whiteSpace=wrap;html=1;" vertex="1" parent="1">
          <mxGeometry x="860" y="220" width="130" height="230" as="geometry" />
        </mxCell>
        <mxCell id="tmGiLWiuq_pXPjT5mu-G-9" value="" style="triangle;whiteSpace=wrap;html=1;" vertex="1" parent="1">
          <mxGeometry x="679" y="1048" width="20" height="20" as="geometry" />
        </mxCell>
        <mxCell id="tmGiLWiuq_pXPjT5mu-G-39" style="edgeStyle=orthogonalEdgeStyle;rounded=0;orthogonalLoop=1;jettySize=auto;html=1;entryX=0;entryY=0.5;entryDx=0;entryDy=0;" edge="1" parent="1" source="tmGiLWiuq_pXPjT5mu-G-25" target="2Y-T_WITprWG7Eant2bq-2">
          <mxGeometry relative="1" as="geometry" />
        </mxCell>
        <mxCell id="tmGiLWiuq_pXPjT5mu-G-25" value="&lt;div&gt;&lt;b&gt;PC&amp;nbsp;&lt;/b&gt;&lt;/div&gt;&lt;div&gt;&lt;b&gt;MUX&lt;/b&gt;&lt;/div&gt;" style="verticalLabelPosition=middle;verticalAlign=middle;html=1;shape=trapezoid;perimeter=trapezoidPerimeter;whiteSpace=wrap;size=0.23;arcSize=10;flipV=1;labelPosition=center;align=center;direction=south;" vertex="1" parent="1">
          <mxGeometry x="220" y="527" width="30" height="238" as="geometry" />
        </mxCell>
        <mxCell id="tmGiLWiuq_pXPjT5mu-G-55" style="edgeStyle=orthogonalEdgeStyle;rounded=0;orthogonalLoop=1;jettySize=auto;html=1;" edge="1" parent="1" source="tmGiLWiuq_pXPjT5mu-G-26">
          <mxGeometry relative="1" as="geometry">
            <mxPoint x="670" y="922" as="targetPoint" />
          </mxGeometry>
        </mxCell>
        <mxCell id="tmGiLWiuq_pXPjT5mu-G-26" value="&lt;b&gt;INST. CACHELINE&lt;/b&gt;" style="rounded=0;whiteSpace=wrap;html=1;" vertex="1" parent="1">
          <mxGeometry x="481" y="857" width="80" height="130" as="geometry" />
        </mxCell>
        <mxCell id="tmGiLWiuq_pXPjT5mu-G-27" value="" style="triangle;whiteSpace=wrap;html=1;" vertex="1" parent="1">
          <mxGeometry x="481" y="957" width="20" height="20" as="geometry" />
        </mxCell>
        <mxCell id="tmGiLWiuq_pXPjT5mu-G-35" style="edgeStyle=orthogonalEdgeStyle;rounded=0;orthogonalLoop=1;jettySize=auto;html=1;entryX=0.152;entryY=0.74;entryDx=0;entryDy=0;entryPerimeter=0;" edge="1" parent="1" source="2Y-T_WITprWG7Eant2bq-2" target="Lo2Uv1aopZFOO-q884Ed-5">
          <mxGeometry relative="1" as="geometry">
            <Array as="points">
              <mxPoint x="380" y="795" />
              <mxPoint x="100" y="795" />
              <mxPoint x="100" y="744" />
            </Array>
          </mxGeometry>
        </mxCell>
        <mxCell id="tmGiLWiuq_pXPjT5mu-G-37" value="" style="triangle;whiteSpace=wrap;html=1;" vertex="1" parent="1">
          <mxGeometry x="340" y="661" width="20" height="20" as="geometry" />
        </mxCell>
        <mxCell id="tmGiLWiuq_pXPjT5mu-G-42" style="edgeStyle=orthogonalEdgeStyle;rounded=0;orthogonalLoop=1;jettySize=auto;html=1;entryX=0.168;entryY=1;entryDx=0;entryDy=0;entryPerimeter=0;" edge="1" parent="1" source="Lo2Uv1aopZFOO-q884Ed-5" target="tmGiLWiuq_pXPjT5mu-G-25">
          <mxGeometry relative="1" as="geometry" />
        </mxCell>
        <mxCell id="tmGiLWiuq_pXPjT5mu-G-44" style="edgeStyle=orthogonalEdgeStyle;rounded=0;orthogonalLoop=1;jettySize=auto;html=1;entryX=0.832;entryY=1;entryDx=0;entryDy=0;entryPerimeter=0;" edge="1" parent="1" source="2Y-T_WITprWG7Eant2bq-2" target="tmGiLWiuq_pXPjT5mu-G-25">
          <mxGeometry relative="1" as="geometry">
            <Array as="points">
              <mxPoint x="380" y="507" />
              <mxPoint x="200" y="507" />
              <mxPoint x="200" y="567" />
            </Array>
          </mxGeometry>
        </mxCell>
        <mxCell id="59eEeYQ3Ve1wWNyKsLEn-147" style="edgeStyle=orthogonalEdgeStyle;rounded=0;orthogonalLoop=1;jettySize=auto;html=1;entryX=0;entryY=0.25;entryDx=0;entryDy=0;exitX=1.027;exitY=0.124;exitDx=0;exitDy=0;exitPerimeter=0;" edge="1" parent="1" source="tmGiLWiuq_pXPjT5mu-G-64" target="vEjdfM-KKYpxFgrzCALx-174">
          <mxGeometry relative="1" as="geometry">
            <Array as="points">
              <mxPoint x="2416" y="280" />
              <mxPoint x="2860" y="280" />
              <mxPoint x="2860" y="578" />
            </Array>
          </mxGeometry>
        </mxCell>
        <mxCell id="59eEeYQ3Ve1wWNyKsLEn-148" value="Dest Pkt" style="edgeLabel;html=1;align=center;verticalAlign=middle;resizable=0;points=[];" connectable="0" vertex="1" parent="59eEeYQ3Ve1wWNyKsLEn-147">
          <mxGeometry x="0.4538" y="-3" relative="1" as="geometry">
            <mxPoint x="63" y="139" as="offset" />
          </mxGeometry>
        </mxCell>
        <mxCell id="tmGiLWiuq_pXPjT5mu-G-64" value="&lt;b&gt;ROB&lt;/b&gt;" style="rounded=0;whiteSpace=wrap;html=1;direction=south;" vertex="1" parent="1">
          <mxGeometry x="1610" width="920" height="130" as="geometry" />
        </mxCell>
        <mxCell id="tmGiLWiuq_pXPjT5mu-G-84" value="Reservation Station #1&#xa;FIFO" style="shape=table;startSize=42;container=1;collapsible=0;childLayout=tableLayout;strokeColor=default;fontSize=16;" vertex="1" parent="1">
          <mxGeometry x="1413" y="958" width="180" height="150" as="geometry" />
        </mxCell>
        <mxCell id="tmGiLWiuq_pXPjT5mu-G-85" value="" style="shape=tableRow;horizontal=0;startSize=0;swimlaneHead=0;swimlaneBody=0;strokeColor=inherit;top=0;left=0;bottom=0;right=0;collapsible=0;dropTarget=0;fillColor=none;points=[[0,0.5],[1,0.5]];portConstraint=eastwest;fontSize=16;" vertex="1" parent="tmGiLWiuq_pXPjT5mu-G-84">
          <mxGeometry y="42" width="180" height="36" as="geometry" />
        </mxCell>
        <mxCell id="tmGiLWiuq_pXPjT5mu-G-86" value="" style="shape=partialRectangle;html=1;whiteSpace=wrap;connectable=0;strokeColor=inherit;overflow=hidden;fillColor=none;top=0;left=0;bottom=0;right=0;pointerEvents=1;fontSize=16;" vertex="1" parent="tmGiLWiuq_pXPjT5mu-G-85">
          <mxGeometry width="60" height="36" as="geometry">
            <mxRectangle width="60" height="36" as="alternateBounds" />
          </mxGeometry>
        </mxCell>
        <mxCell id="tmGiLWiuq_pXPjT5mu-G-87" value="" style="shape=partialRectangle;html=1;whiteSpace=wrap;connectable=0;strokeColor=inherit;overflow=hidden;fillColor=none;top=0;left=0;bottom=0;right=0;pointerEvents=1;fontSize=16;" vertex="1" parent="tmGiLWiuq_pXPjT5mu-G-85">
          <mxGeometry x="60" width="60" height="36" as="geometry">
            <mxRectangle width="60" height="36" as="alternateBounds" />
          </mxGeometry>
        </mxCell>
        <mxCell id="tmGiLWiuq_pXPjT5mu-G-88" value="" style="shape=partialRectangle;html=1;whiteSpace=wrap;connectable=0;strokeColor=inherit;overflow=hidden;fillColor=none;top=0;left=0;bottom=0;right=0;pointerEvents=1;fontSize=16;" vertex="1" parent="tmGiLWiuq_pXPjT5mu-G-85">
          <mxGeometry x="120" width="60" height="36" as="geometry">
            <mxRectangle width="60" height="36" as="alternateBounds" />
          </mxGeometry>
        </mxCell>
        <mxCell id="tmGiLWiuq_pXPjT5mu-G-89" value="" style="shape=tableRow;horizontal=0;startSize=0;swimlaneHead=0;swimlaneBody=0;strokeColor=inherit;top=0;left=0;bottom=0;right=0;collapsible=0;dropTarget=0;fillColor=none;points=[[0,0.5],[1,0.5]];portConstraint=eastwest;fontSize=16;" vertex="1" parent="tmGiLWiuq_pXPjT5mu-G-84">
          <mxGeometry y="78" width="180" height="36" as="geometry" />
        </mxCell>
        <mxCell id="tmGiLWiuq_pXPjT5mu-G-90" value="" style="shape=partialRectangle;html=1;whiteSpace=wrap;connectable=0;strokeColor=inherit;overflow=hidden;fillColor=none;top=0;left=0;bottom=0;right=0;pointerEvents=1;fontSize=16;" vertex="1" parent="tmGiLWiuq_pXPjT5mu-G-89">
          <mxGeometry width="60" height="36" as="geometry">
            <mxRectangle width="60" height="36" as="alternateBounds" />
          </mxGeometry>
        </mxCell>
        <mxCell id="tmGiLWiuq_pXPjT5mu-G-91" value="" style="shape=partialRectangle;html=1;whiteSpace=wrap;connectable=0;strokeColor=inherit;overflow=hidden;fillColor=none;top=0;left=0;bottom=0;right=0;pointerEvents=1;fontSize=16;" vertex="1" parent="tmGiLWiuq_pXPjT5mu-G-89">
          <mxGeometry x="60" width="60" height="36" as="geometry">
            <mxRectangle width="60" height="36" as="alternateBounds" />
          </mxGeometry>
        </mxCell>
        <mxCell id="tmGiLWiuq_pXPjT5mu-G-92" value="" style="shape=partialRectangle;html=1;whiteSpace=wrap;connectable=0;strokeColor=inherit;overflow=hidden;fillColor=none;top=0;left=0;bottom=0;right=0;pointerEvents=1;fontSize=16;" vertex="1" parent="tmGiLWiuq_pXPjT5mu-G-89">
          <mxGeometry x="120" width="60" height="36" as="geometry">
            <mxRectangle width="60" height="36" as="alternateBounds" />
          </mxGeometry>
        </mxCell>
        <mxCell id="tmGiLWiuq_pXPjT5mu-G-93" value="" style="shape=tableRow;horizontal=0;startSize=0;swimlaneHead=0;swimlaneBody=0;strokeColor=inherit;top=0;left=0;bottom=0;right=0;collapsible=0;dropTarget=0;fillColor=none;points=[[0,0.5],[1,0.5]];portConstraint=eastwest;fontSize=16;" vertex="1" parent="tmGiLWiuq_pXPjT5mu-G-84">
          <mxGeometry y="114" width="180" height="36" as="geometry" />
        </mxCell>
        <mxCell id="tmGiLWiuq_pXPjT5mu-G-94" value="" style="shape=partialRectangle;html=1;whiteSpace=wrap;connectable=0;strokeColor=inherit;overflow=hidden;fillColor=none;top=0;left=0;bottom=0;right=0;pointerEvents=1;fontSize=16;" vertex="1" parent="tmGiLWiuq_pXPjT5mu-G-93">
          <mxGeometry width="60" height="36" as="geometry">
            <mxRectangle width="60" height="36" as="alternateBounds" />
          </mxGeometry>
        </mxCell>
        <mxCell id="tmGiLWiuq_pXPjT5mu-G-95" value="" style="shape=partialRectangle;html=1;whiteSpace=wrap;connectable=0;strokeColor=inherit;overflow=hidden;fillColor=none;top=0;left=0;bottom=0;right=0;pointerEvents=1;fontSize=16;" vertex="1" parent="tmGiLWiuq_pXPjT5mu-G-93">
          <mxGeometry x="60" width="60" height="36" as="geometry">
            <mxRectangle width="60" height="36" as="alternateBounds" />
          </mxGeometry>
        </mxCell>
        <mxCell id="tmGiLWiuq_pXPjT5mu-G-96" value="" style="shape=partialRectangle;html=1;whiteSpace=wrap;connectable=0;strokeColor=inherit;overflow=hidden;fillColor=none;top=0;left=0;bottom=0;right=0;pointerEvents=1;fontSize=16;" vertex="1" parent="tmGiLWiuq_pXPjT5mu-G-93">
          <mxGeometry x="120" width="60" height="36" as="geometry">
            <mxRectangle width="60" height="36" as="alternateBounds" />
          </mxGeometry>
        </mxCell>
        <mxCell id="wpYnhnTJWM2q-OIGQQ5s-15" value="Reservation Station #2&#xa;FIFO" style="shape=table;startSize=42;container=1;collapsible=0;childLayout=tableLayout;strokeColor=default;fontSize=16;" vertex="1" parent="1">
          <mxGeometry x="1413" y="808" width="180" height="150" as="geometry" />
        </mxCell>
        <mxCell id="wpYnhnTJWM2q-OIGQQ5s-16" value="" style="shape=tableRow;horizontal=0;startSize=0;swimlaneHead=0;swimlaneBody=0;strokeColor=inherit;top=0;left=0;bottom=0;right=0;collapsible=0;dropTarget=0;fillColor=none;points=[[0,0.5],[1,0.5]];portConstraint=eastwest;fontSize=16;" vertex="1" parent="wpYnhnTJWM2q-OIGQQ5s-15">
          <mxGeometry y="42" width="180" height="36" as="geometry" />
        </mxCell>
        <mxCell id="wpYnhnTJWM2q-OIGQQ5s-17" value="" style="shape=partialRectangle;html=1;whiteSpace=wrap;connectable=0;strokeColor=inherit;overflow=hidden;fillColor=none;top=0;left=0;bottom=0;right=0;pointerEvents=1;fontSize=16;" vertex="1" parent="wpYnhnTJWM2q-OIGQQ5s-16">
          <mxGeometry width="60" height="36" as="geometry">
            <mxRectangle width="60" height="36" as="alternateBounds" />
          </mxGeometry>
        </mxCell>
        <mxCell id="wpYnhnTJWM2q-OIGQQ5s-18" value="" style="shape=partialRectangle;html=1;whiteSpace=wrap;connectable=0;strokeColor=inherit;overflow=hidden;fillColor=none;top=0;left=0;bottom=0;right=0;pointerEvents=1;fontSize=16;" vertex="1" parent="wpYnhnTJWM2q-OIGQQ5s-16">
          <mxGeometry x="60" width="60" height="36" as="geometry">
            <mxRectangle width="60" height="36" as="alternateBounds" />
          </mxGeometry>
        </mxCell>
        <mxCell id="wpYnhnTJWM2q-OIGQQ5s-19" value="" style="shape=partialRectangle;html=1;whiteSpace=wrap;connectable=0;strokeColor=inherit;overflow=hidden;fillColor=none;top=0;left=0;bottom=0;right=0;pointerEvents=1;fontSize=16;" vertex="1" parent="wpYnhnTJWM2q-OIGQQ5s-16">
          <mxGeometry x="120" width="60" height="36" as="geometry">
            <mxRectangle width="60" height="36" as="alternateBounds" />
          </mxGeometry>
        </mxCell>
        <mxCell id="wpYnhnTJWM2q-OIGQQ5s-20" value="" style="shape=tableRow;horizontal=0;startSize=0;swimlaneHead=0;swimlaneBody=0;strokeColor=inherit;top=0;left=0;bottom=0;right=0;collapsible=0;dropTarget=0;fillColor=none;points=[[0,0.5],[1,0.5]];portConstraint=eastwest;fontSize=16;" vertex="1" parent="wpYnhnTJWM2q-OIGQQ5s-15">
          <mxGeometry y="78" width="180" height="36" as="geometry" />
        </mxCell>
        <mxCell id="wpYnhnTJWM2q-OIGQQ5s-21" value="" style="shape=partialRectangle;html=1;whiteSpace=wrap;connectable=0;strokeColor=inherit;overflow=hidden;fillColor=none;top=0;left=0;bottom=0;right=0;pointerEvents=1;fontSize=16;" vertex="1" parent="wpYnhnTJWM2q-OIGQQ5s-20">
          <mxGeometry width="60" height="36" as="geometry">
            <mxRectangle width="60" height="36" as="alternateBounds" />
          </mxGeometry>
        </mxCell>
        <mxCell id="wpYnhnTJWM2q-OIGQQ5s-22" value="" style="shape=partialRectangle;html=1;whiteSpace=wrap;connectable=0;strokeColor=inherit;overflow=hidden;fillColor=none;top=0;left=0;bottom=0;right=0;pointerEvents=1;fontSize=16;" vertex="1" parent="wpYnhnTJWM2q-OIGQQ5s-20">
          <mxGeometry x="60" width="60" height="36" as="geometry">
            <mxRectangle width="60" height="36" as="alternateBounds" />
          </mxGeometry>
        </mxCell>
        <mxCell id="wpYnhnTJWM2q-OIGQQ5s-23" value="" style="shape=partialRectangle;html=1;whiteSpace=wrap;connectable=0;strokeColor=inherit;overflow=hidden;fillColor=none;top=0;left=0;bottom=0;right=0;pointerEvents=1;fontSize=16;" vertex="1" parent="wpYnhnTJWM2q-OIGQQ5s-20">
          <mxGeometry x="120" width="60" height="36" as="geometry">
            <mxRectangle width="60" height="36" as="alternateBounds" />
          </mxGeometry>
        </mxCell>
        <mxCell id="wpYnhnTJWM2q-OIGQQ5s-24" value="" style="shape=tableRow;horizontal=0;startSize=0;swimlaneHead=0;swimlaneBody=0;strokeColor=inherit;top=0;left=0;bottom=0;right=0;collapsible=0;dropTarget=0;fillColor=none;points=[[0,0.5],[1,0.5]];portConstraint=eastwest;fontSize=16;" vertex="1" parent="wpYnhnTJWM2q-OIGQQ5s-15">
          <mxGeometry y="114" width="180" height="36" as="geometry" />
        </mxCell>
        <mxCell id="wpYnhnTJWM2q-OIGQQ5s-25" value="" style="shape=partialRectangle;html=1;whiteSpace=wrap;connectable=0;strokeColor=inherit;overflow=hidden;fillColor=none;top=0;left=0;bottom=0;right=0;pointerEvents=1;fontSize=16;" vertex="1" parent="wpYnhnTJWM2q-OIGQQ5s-24">
          <mxGeometry width="60" height="36" as="geometry">
            <mxRectangle width="60" height="36" as="alternateBounds" />
          </mxGeometry>
        </mxCell>
        <mxCell id="wpYnhnTJWM2q-OIGQQ5s-26" value="" style="shape=partialRectangle;html=1;whiteSpace=wrap;connectable=0;strokeColor=inherit;overflow=hidden;fillColor=none;top=0;left=0;bottom=0;right=0;pointerEvents=1;fontSize=16;" vertex="1" parent="wpYnhnTJWM2q-OIGQQ5s-24">
          <mxGeometry x="60" width="60" height="36" as="geometry">
            <mxRectangle width="60" height="36" as="alternateBounds" />
          </mxGeometry>
        </mxCell>
        <mxCell id="wpYnhnTJWM2q-OIGQQ5s-27" value="" style="shape=partialRectangle;html=1;whiteSpace=wrap;connectable=0;strokeColor=inherit;overflow=hidden;fillColor=none;top=0;left=0;bottom=0;right=0;pointerEvents=1;fontSize=16;" vertex="1" parent="wpYnhnTJWM2q-OIGQQ5s-24">
          <mxGeometry x="120" width="60" height="36" as="geometry">
            <mxRectangle width="60" height="36" as="alternateBounds" />
          </mxGeometry>
        </mxCell>
        <mxCell id="59eEeYQ3Ve1wWNyKsLEn-152" style="edgeStyle=orthogonalEdgeStyle;rounded=0;orthogonalLoop=1;jettySize=auto;html=1;entryX=0.5;entryY=0;entryDx=0;entryDy=0;" edge="1" parent="1" source="wpYnhnTJWM2q-OIGQQ5s-29" target="tmGiLWiuq_pXPjT5mu-G-6">
          <mxGeometry relative="1" as="geometry">
            <Array as="points">
              <mxPoint x="1530" y="285" />
            </Array>
          </mxGeometry>
        </mxCell>
        <mxCell id="wpYnhnTJWM2q-OIGQQ5s-29" value="Reservation Station #4&#xa;FIFO" style="shape=table;startSize=42;container=1;collapsible=0;childLayout=tableLayout;strokeColor=default;fontSize=16;" vertex="1" parent="1">
          <mxGeometry x="1413" y="508" width="180" height="150" as="geometry" />
        </mxCell>
        <mxCell id="wpYnhnTJWM2q-OIGQQ5s-30" value="" style="shape=tableRow;horizontal=0;startSize=0;swimlaneHead=0;swimlaneBody=0;strokeColor=inherit;top=0;left=0;bottom=0;right=0;collapsible=0;dropTarget=0;fillColor=none;points=[[0,0.5],[1,0.5]];portConstraint=eastwest;fontSize=16;" vertex="1" parent="wpYnhnTJWM2q-OIGQQ5s-29">
          <mxGeometry y="42" width="180" height="36" as="geometry" />
        </mxCell>
        <mxCell id="wpYnhnTJWM2q-OIGQQ5s-31" value="" style="shape=partialRectangle;html=1;whiteSpace=wrap;connectable=0;strokeColor=inherit;overflow=hidden;fillColor=none;top=0;left=0;bottom=0;right=0;pointerEvents=1;fontSize=16;" vertex="1" parent="wpYnhnTJWM2q-OIGQQ5s-30">
          <mxGeometry width="60" height="36" as="geometry">
            <mxRectangle width="60" height="36" as="alternateBounds" />
          </mxGeometry>
        </mxCell>
        <mxCell id="wpYnhnTJWM2q-OIGQQ5s-32" value="" style="shape=partialRectangle;html=1;whiteSpace=wrap;connectable=0;strokeColor=inherit;overflow=hidden;fillColor=none;top=0;left=0;bottom=0;right=0;pointerEvents=1;fontSize=16;" vertex="1" parent="wpYnhnTJWM2q-OIGQQ5s-30">
          <mxGeometry x="60" width="60" height="36" as="geometry">
            <mxRectangle width="60" height="36" as="alternateBounds" />
          </mxGeometry>
        </mxCell>
        <mxCell id="wpYnhnTJWM2q-OIGQQ5s-33" value="" style="shape=partialRectangle;html=1;whiteSpace=wrap;connectable=0;strokeColor=inherit;overflow=hidden;fillColor=none;top=0;left=0;bottom=0;right=0;pointerEvents=1;fontSize=16;" vertex="1" parent="wpYnhnTJWM2q-OIGQQ5s-30">
          <mxGeometry x="120" width="60" height="36" as="geometry">
            <mxRectangle width="60" height="36" as="alternateBounds" />
          </mxGeometry>
        </mxCell>
        <mxCell id="wpYnhnTJWM2q-OIGQQ5s-34" value="" style="shape=tableRow;horizontal=0;startSize=0;swimlaneHead=0;swimlaneBody=0;strokeColor=inherit;top=0;left=0;bottom=0;right=0;collapsible=0;dropTarget=0;fillColor=none;points=[[0,0.5],[1,0.5]];portConstraint=eastwest;fontSize=16;" vertex="1" parent="wpYnhnTJWM2q-OIGQQ5s-29">
          <mxGeometry y="78" width="180" height="36" as="geometry" />
        </mxCell>
        <mxCell id="wpYnhnTJWM2q-OIGQQ5s-35" value="" style="shape=partialRectangle;html=1;whiteSpace=wrap;connectable=0;strokeColor=inherit;overflow=hidden;fillColor=none;top=0;left=0;bottom=0;right=0;pointerEvents=1;fontSize=16;" vertex="1" parent="wpYnhnTJWM2q-OIGQQ5s-34">
          <mxGeometry width="60" height="36" as="geometry">
            <mxRectangle width="60" height="36" as="alternateBounds" />
          </mxGeometry>
        </mxCell>
        <mxCell id="wpYnhnTJWM2q-OIGQQ5s-36" value="" style="shape=partialRectangle;html=1;whiteSpace=wrap;connectable=0;strokeColor=inherit;overflow=hidden;fillColor=none;top=0;left=0;bottom=0;right=0;pointerEvents=1;fontSize=16;" vertex="1" parent="wpYnhnTJWM2q-OIGQQ5s-34">
          <mxGeometry x="60" width="60" height="36" as="geometry">
            <mxRectangle width="60" height="36" as="alternateBounds" />
          </mxGeometry>
        </mxCell>
        <mxCell id="wpYnhnTJWM2q-OIGQQ5s-37" value="" style="shape=partialRectangle;html=1;whiteSpace=wrap;connectable=0;strokeColor=inherit;overflow=hidden;fillColor=none;top=0;left=0;bottom=0;right=0;pointerEvents=1;fontSize=16;" vertex="1" parent="wpYnhnTJWM2q-OIGQQ5s-34">
          <mxGeometry x="120" width="60" height="36" as="geometry">
            <mxRectangle width="60" height="36" as="alternateBounds" />
          </mxGeometry>
        </mxCell>
        <mxCell id="wpYnhnTJWM2q-OIGQQ5s-38" value="" style="shape=tableRow;horizontal=0;startSize=0;swimlaneHead=0;swimlaneBody=0;strokeColor=inherit;top=0;left=0;bottom=0;right=0;collapsible=0;dropTarget=0;fillColor=none;points=[[0,0.5],[1,0.5]];portConstraint=eastwest;fontSize=16;" vertex="1" parent="wpYnhnTJWM2q-OIGQQ5s-29">
          <mxGeometry y="114" width="180" height="36" as="geometry" />
        </mxCell>
        <mxCell id="wpYnhnTJWM2q-OIGQQ5s-39" value="" style="shape=partialRectangle;html=1;whiteSpace=wrap;connectable=0;strokeColor=inherit;overflow=hidden;fillColor=none;top=0;left=0;bottom=0;right=0;pointerEvents=1;fontSize=16;" vertex="1" parent="wpYnhnTJWM2q-OIGQQ5s-38">
          <mxGeometry width="60" height="36" as="geometry">
            <mxRectangle width="60" height="36" as="alternateBounds" />
          </mxGeometry>
        </mxCell>
        <mxCell id="wpYnhnTJWM2q-OIGQQ5s-40" value="" style="shape=partialRectangle;html=1;whiteSpace=wrap;connectable=0;strokeColor=inherit;overflow=hidden;fillColor=none;top=0;left=0;bottom=0;right=0;pointerEvents=1;fontSize=16;" vertex="1" parent="wpYnhnTJWM2q-OIGQQ5s-38">
          <mxGeometry x="60" width="60" height="36" as="geometry">
            <mxRectangle width="60" height="36" as="alternateBounds" />
          </mxGeometry>
        </mxCell>
        <mxCell id="wpYnhnTJWM2q-OIGQQ5s-41" value="" style="shape=partialRectangle;html=1;whiteSpace=wrap;connectable=0;strokeColor=inherit;overflow=hidden;fillColor=none;top=0;left=0;bottom=0;right=0;pointerEvents=1;fontSize=16;" vertex="1" parent="wpYnhnTJWM2q-OIGQQ5s-38">
          <mxGeometry x="120" width="60" height="36" as="geometry">
            <mxRectangle width="60" height="36" as="alternateBounds" />
          </mxGeometry>
        </mxCell>
        <mxCell id="wpYnhnTJWM2q-OIGQQ5s-73" value="&lt;b&gt;FP1&lt;/b&gt;" style="rounded=0;whiteSpace=wrap;html=1;" vertex="1" parent="1">
          <mxGeometry x="1960" y="319" width="130" height="230" as="geometry" />
        </mxCell>
        <mxCell id="wpYnhnTJWM2q-OIGQQ5s-74" value="&lt;b&gt;BR&lt;/b&gt;" style="rounded=0;whiteSpace=wrap;html=1;" vertex="1" parent="1">
          <mxGeometry x="1960" y="568" width="130" height="230" as="geometry" />
        </mxCell>
        <mxCell id="wpYnhnTJWM2q-OIGQQ5s-75" value="&lt;b&gt;ADDR CALC&lt;/b&gt;" style="rounded=0;whiteSpace=wrap;html=1;" vertex="1" parent="1">
          <mxGeometry x="1960" y="819" width="130" height="230" as="geometry" />
        </mxCell>
        <mxCell id="wpYnhnTJWM2q-OIGQQ5s-76" value="&lt;b&gt;INT ALU&lt;/b&gt;" style="rounded=0;whiteSpace=wrap;html=1;" vertex="1" parent="1">
          <mxGeometry x="1960" y="1060" width="130" height="230" as="geometry" />
        </mxCell>
        <mxCell id="8kcCSNlDScjl7W__Mixc-10" value="&lt;b&gt;FP2&lt;/b&gt;" style="rounded=0;whiteSpace=wrap;html=1;" vertex="1" parent="1">
          <mxGeometry x="2130" y="319" width="130" height="230" as="geometry" />
        </mxCell>
        <mxCell id="8kcCSNlDScjl7W__Mixc-12" value="&lt;b&gt;MEM&lt;/b&gt;" style="rounded=0;whiteSpace=wrap;html=1;" vertex="1" parent="1">
          <mxGeometry x="2297" y="819" width="130" height="230" as="geometry" />
        </mxCell>
        <mxCell id="8kcCSNlDScjl7W__Mixc-14" value="&lt;b&gt;FP3&lt;/b&gt;" style="rounded=0;whiteSpace=wrap;html=1;" vertex="1" parent="1">
          <mxGeometry x="2297" y="319" width="130" height="230" as="geometry" />
        </mxCell>
        <mxCell id="9TAhi3XfBYmtLasGSoGz-1" value="&lt;font style=&quot;font-size: 30px;&quot;&gt;&lt;span&gt;FETCH&lt;/span&gt;&lt;/font&gt;" style="text;html=1;align=center;verticalAlign=middle;whiteSpace=wrap;rounded=0;fontStyle=1" vertex="1" parent="1">
          <mxGeometry x="220" y="1450" width="320" height="90" as="geometry" />
        </mxCell>
        <mxCell id="9TAhi3XfBYmtLasGSoGz-2" value="&lt;font style=&quot;font-size: 30px;&quot;&gt;DECODE/RENAME&lt;/font&gt;" style="text;html=1;align=center;verticalAlign=middle;whiteSpace=wrap;rounded=0;fontStyle=1" vertex="1" parent="1">
          <mxGeometry x="765" y="1450" width="320" height="90" as="geometry" />
        </mxCell>
        <mxCell id="9TAhi3XfBYmtLasGSoGz-3" value="&lt;font style=&quot;font-size: 30px;&quot;&gt;DISPATCH&lt;/font&gt;" style="text;html=1;align=center;verticalAlign=middle;whiteSpace=wrap;rounded=0;fontStyle=1" vertex="1" parent="1">
          <mxGeometry x="1150" y="1450" width="320" height="90" as="geometry" />
        </mxCell>
        <mxCell id="9TAhi3XfBYmtLasGSoGz-4" value="&lt;font style=&quot;font-size: 30px;&quot;&gt;ISSUE&lt;/font&gt;" style="text;html=1;align=center;verticalAlign=middle;whiteSpace=wrap;rounded=0;fontStyle=1" vertex="1" parent="1">
          <mxGeometry x="1580" y="1450" width="320" height="90" as="geometry" />
        </mxCell>
        <mxCell id="9TAhi3XfBYmtLasGSoGz-5" value="&lt;font style=&quot;font-size: 30px;&quot;&gt;EXECUTE&lt;/font&gt;" style="text;html=1;align=center;verticalAlign=middle;whiteSpace=wrap;rounded=0;fontStyle=1" vertex="1" parent="1">
          <mxGeometry x="2090" y="1450" width="320" height="90" as="geometry" />
        </mxCell>
        <mxCell id="9TAhi3XfBYmtLasGSoGz-6" value="&lt;font style=&quot;font-size: 30px;&quot;&gt;WRITEBACK&lt;/font&gt;" style="text;html=1;align=center;verticalAlign=middle;whiteSpace=wrap;rounded=0;fontStyle=1" vertex="1" parent="1">
          <mxGeometry x="2560" y="1450" width="320" height="90" as="geometry" />
        </mxCell>
        <mxCell id="9TAhi3XfBYmtLasGSoGz-7" value="&lt;font style=&quot;font-size: 30px;&quot;&gt;COMMIT&lt;/font&gt;" style="text;html=1;align=center;verticalAlign=middle;whiteSpace=wrap;rounded=0;fontStyle=1" vertex="1" parent="1">
          <mxGeometry x="2910" y="1450" width="320" height="90" as="geometry" />
        </mxCell>
        <mxCell id="9TAhi3XfBYmtLasGSoGz-9" value="Reservation Station #3&#xa;FIFO" style="shape=table;startSize=42;container=1;collapsible=0;childLayout=tableLayout;strokeColor=default;fontSize=16;" vertex="1" parent="1">
          <mxGeometry x="1413" y="658" width="180" height="150" as="geometry" />
        </mxCell>
        <mxCell id="9TAhi3XfBYmtLasGSoGz-10" value="" style="shape=tableRow;horizontal=0;startSize=0;swimlaneHead=0;swimlaneBody=0;strokeColor=inherit;top=0;left=0;bottom=0;right=0;collapsible=0;dropTarget=0;fillColor=none;points=[[0,0.5],[1,0.5]];portConstraint=eastwest;fontSize=16;" vertex="1" parent="9TAhi3XfBYmtLasGSoGz-9">
          <mxGeometry y="42" width="180" height="36" as="geometry" />
        </mxCell>
        <mxCell id="9TAhi3XfBYmtLasGSoGz-11" value="" style="shape=partialRectangle;html=1;whiteSpace=wrap;connectable=0;strokeColor=inherit;overflow=hidden;fillColor=none;top=0;left=0;bottom=0;right=0;pointerEvents=1;fontSize=16;" vertex="1" parent="9TAhi3XfBYmtLasGSoGz-10">
          <mxGeometry width="60" height="36" as="geometry">
            <mxRectangle width="60" height="36" as="alternateBounds" />
          </mxGeometry>
        </mxCell>
        <mxCell id="9TAhi3XfBYmtLasGSoGz-12" value="" style="shape=partialRectangle;html=1;whiteSpace=wrap;connectable=0;strokeColor=inherit;overflow=hidden;fillColor=none;top=0;left=0;bottom=0;right=0;pointerEvents=1;fontSize=16;" vertex="1" parent="9TAhi3XfBYmtLasGSoGz-10">
          <mxGeometry x="60" width="60" height="36" as="geometry">
            <mxRectangle width="60" height="36" as="alternateBounds" />
          </mxGeometry>
        </mxCell>
        <mxCell id="9TAhi3XfBYmtLasGSoGz-13" value="" style="shape=partialRectangle;html=1;whiteSpace=wrap;connectable=0;strokeColor=inherit;overflow=hidden;fillColor=none;top=0;left=0;bottom=0;right=0;pointerEvents=1;fontSize=16;" vertex="1" parent="9TAhi3XfBYmtLasGSoGz-10">
          <mxGeometry x="120" width="60" height="36" as="geometry">
            <mxRectangle width="60" height="36" as="alternateBounds" />
          </mxGeometry>
        </mxCell>
        <mxCell id="9TAhi3XfBYmtLasGSoGz-14" value="" style="shape=tableRow;horizontal=0;startSize=0;swimlaneHead=0;swimlaneBody=0;strokeColor=inherit;top=0;left=0;bottom=0;right=0;collapsible=0;dropTarget=0;fillColor=none;points=[[0,0.5],[1,0.5]];portConstraint=eastwest;fontSize=16;" vertex="1" parent="9TAhi3XfBYmtLasGSoGz-9">
          <mxGeometry y="78" width="180" height="36" as="geometry" />
        </mxCell>
        <mxCell id="9TAhi3XfBYmtLasGSoGz-15" value="" style="shape=partialRectangle;html=1;whiteSpace=wrap;connectable=0;strokeColor=inherit;overflow=hidden;fillColor=none;top=0;left=0;bottom=0;right=0;pointerEvents=1;fontSize=16;" vertex="1" parent="9TAhi3XfBYmtLasGSoGz-14">
          <mxGeometry width="60" height="36" as="geometry">
            <mxRectangle width="60" height="36" as="alternateBounds" />
          </mxGeometry>
        </mxCell>
        <mxCell id="9TAhi3XfBYmtLasGSoGz-16" value="" style="shape=partialRectangle;html=1;whiteSpace=wrap;connectable=0;strokeColor=inherit;overflow=hidden;fillColor=none;top=0;left=0;bottom=0;right=0;pointerEvents=1;fontSize=16;" vertex="1" parent="9TAhi3XfBYmtLasGSoGz-14">
          <mxGeometry x="60" width="60" height="36" as="geometry">
            <mxRectangle width="60" height="36" as="alternateBounds" />
          </mxGeometry>
        </mxCell>
        <mxCell id="9TAhi3XfBYmtLasGSoGz-17" value="" style="shape=partialRectangle;html=1;whiteSpace=wrap;connectable=0;strokeColor=inherit;overflow=hidden;fillColor=none;top=0;left=0;bottom=0;right=0;pointerEvents=1;fontSize=16;" vertex="1" parent="9TAhi3XfBYmtLasGSoGz-14">
          <mxGeometry x="120" width="60" height="36" as="geometry">
            <mxRectangle width="60" height="36" as="alternateBounds" />
          </mxGeometry>
        </mxCell>
        <mxCell id="9TAhi3XfBYmtLasGSoGz-18" value="" style="shape=tableRow;horizontal=0;startSize=0;swimlaneHead=0;swimlaneBody=0;strokeColor=inherit;top=0;left=0;bottom=0;right=0;collapsible=0;dropTarget=0;fillColor=none;points=[[0,0.5],[1,0.5]];portConstraint=eastwest;fontSize=16;" vertex="1" parent="9TAhi3XfBYmtLasGSoGz-9">
          <mxGeometry y="114" width="180" height="36" as="geometry" />
        </mxCell>
        <mxCell id="9TAhi3XfBYmtLasGSoGz-19" value="" style="shape=partialRectangle;html=1;whiteSpace=wrap;connectable=0;strokeColor=inherit;overflow=hidden;fillColor=none;top=0;left=0;bottom=0;right=0;pointerEvents=1;fontSize=16;" vertex="1" parent="9TAhi3XfBYmtLasGSoGz-18">
          <mxGeometry width="60" height="36" as="geometry">
            <mxRectangle width="60" height="36" as="alternateBounds" />
          </mxGeometry>
        </mxCell>
        <mxCell id="9TAhi3XfBYmtLasGSoGz-20" value="" style="shape=partialRectangle;html=1;whiteSpace=wrap;connectable=0;strokeColor=inherit;overflow=hidden;fillColor=none;top=0;left=0;bottom=0;right=0;pointerEvents=1;fontSize=16;" vertex="1" parent="9TAhi3XfBYmtLasGSoGz-18">
          <mxGeometry x="60" width="60" height="36" as="geometry">
            <mxRectangle width="60" height="36" as="alternateBounds" />
          </mxGeometry>
        </mxCell>
        <mxCell id="9TAhi3XfBYmtLasGSoGz-21" value="" style="shape=partialRectangle;html=1;whiteSpace=wrap;connectable=0;strokeColor=inherit;overflow=hidden;fillColor=none;top=0;left=0;bottom=0;right=0;pointerEvents=1;fontSize=16;" vertex="1" parent="9TAhi3XfBYmtLasGSoGz-18">
          <mxGeometry x="120" width="60" height="36" as="geometry">
            <mxRectangle width="60" height="36" as="alternateBounds" />
          </mxGeometry>
        </mxCell>
        <mxCell id="9TAhi3XfBYmtLasGSoGz-71" value="&lt;div&gt;DECODER&lt;/div&gt;&lt;div&gt;LOGIC&lt;/div&gt;" style="rounded=1;whiteSpace=wrap;html=1;direction=south;fontStyle=1" vertex="1" parent="1">
          <mxGeometry x="799" y="673" width="70" height="333" as="geometry" />
        </mxCell>
        <mxCell id="vEjdfM-KKYpxFgrzCALx-59" style="edgeStyle=orthogonalEdgeStyle;rounded=0;orthogonalLoop=1;jettySize=auto;html=1;entryX=0.5;entryY=1;entryDx=0;entryDy=0;" edge="1" parent="1" source="vEjdfM-KKYpxFgrzCALx-58" target="tmGiLWiuq_pXPjT5mu-G-26">
          <mxGeometry relative="1" as="geometry" />
        </mxCell>
        <mxCell id="vEjdfM-KKYpxFgrzCALx-58" value="&lt;b&gt;IM CACHE&lt;/b&gt;" style="rounded=0;whiteSpace=wrap;html=1;" vertex="1" parent="1">
          <mxGeometry x="456" y="1016.5" width="130" height="230" as="geometry" />
        </mxCell>
        <mxCell id="vEjdfM-KKYpxFgrzCALx-61" style="edgeStyle=orthogonalEdgeStyle;rounded=0;orthogonalLoop=1;jettySize=auto;html=1;exitX=0.818;exitY=0.999;exitDx=0;exitDy=0;exitPerimeter=0;entryX=0.907;entryY=-0.039;entryDx=0;entryDy=0;entryPerimeter=0;" edge="1" parent="1" source="vEjdfM-KKYpxFgrzCALx-58" target="Lo2Uv1aopZFOO-q884Ed-3">
          <mxGeometry relative="1" as="geometry">
            <mxPoint x="559" y="1270" as="targetPoint" />
            <Array as="points">
              <mxPoint x="561" y="1268" />
              <mxPoint x="561" y="1287" />
            </Array>
          </mxGeometry>
        </mxCell>
        <mxCell id="vEjdfM-KKYpxFgrzCALx-64" style="edgeStyle=orthogonalEdgeStyle;rounded=0;orthogonalLoop=1;jettySize=auto;html=1;entryX=0.346;entryY=1.015;entryDx=0;entryDy=0;entryPerimeter=0;" edge="1" parent="1" source="Lo2Uv1aopZFOO-q884Ed-3" target="vEjdfM-KKYpxFgrzCALx-58">
          <mxGeometry relative="1" as="geometry">
            <Array as="points">
              <mxPoint x="500" y="1280" />
              <mxPoint x="500" y="1280" />
            </Array>
          </mxGeometry>
        </mxCell>
        <mxCell id="vEjdfM-KKYpxFgrzCALx-66" value="DFP" style="text;html=1;align=center;verticalAlign=middle;whiteSpace=wrap;rounded=0;" vertex="1" parent="1">
          <mxGeometry x="491" y="1200" width="60" height="30" as="geometry" />
        </mxCell>
        <mxCell id="vEjdfM-KKYpxFgrzCALx-67" value="UFP" style="text;html=1;align=center;verticalAlign=middle;whiteSpace=wrap;rounded=0;" vertex="1" parent="1">
          <mxGeometry x="491" y="1038" width="60" height="30" as="geometry" />
        </mxCell>
        <mxCell id="vEjdfM-KKYpxFgrzCALx-68" value="" style="endArrow=none;dashed=1;html=1;dashPattern=1 3;strokeWidth=2;rounded=0;" edge="1" parent="1" target="vEjdfM-KKYpxFgrzCALx-58">
          <mxGeometry width="50" height="50" relative="1" as="geometry">
            <mxPoint x="456" y="1114" as="sourcePoint" />
            <mxPoint x="506" y="1064" as="targetPoint" />
          </mxGeometry>
        </mxCell>
        <mxCell id="vEjdfM-KKYpxFgrzCALx-69" value="" style="endArrow=none;dashed=1;html=1;dashPattern=1 3;strokeWidth=2;rounded=0;entryX=0.995;entryY=0.698;entryDx=0;entryDy=0;entryPerimeter=0;" edge="1" parent="1">
          <mxGeometry width="50" height="50" relative="1" as="geometry">
            <mxPoint x="456" y="1194" as="sourcePoint" />
            <mxPoint x="585.3500000000001" y="1194.0400000000002" as="targetPoint" />
          </mxGeometry>
        </mxCell>
        <mxCell id="vEjdfM-KKYpxFgrzCALx-70" value="" style="endArrow=none;dashed=1;html=1;dashPattern=1 3;strokeWidth=2;rounded=0;entryX=0.995;entryY=0.698;entryDx=0;entryDy=0;entryPerimeter=0;" edge="1" parent="1">
          <mxGeometry width="50" height="50" relative="1" as="geometry">
            <mxPoint x="456" y="1080" as="sourcePoint" />
            <mxPoint x="585" y="1080" as="targetPoint" />
          </mxGeometry>
        </mxCell>
        <mxCell id="vEjdfM-KKYpxFgrzCALx-73" value="" style="endArrow=classic;html=1;rounded=0;entryX=-0.028;entryY=0.578;entryDx=0;entryDy=0;entryPerimeter=0;" edge="1" parent="1" target="tmGiLWiuq_pXPjT5mu-G-3">
          <mxGeometry width="50" height="50" relative="1" as="geometry">
            <mxPoint x="870" y="850" as="sourcePoint" />
            <mxPoint x="1189.0000000000002" y="850.0000000000002" as="targetPoint" />
          </mxGeometry>
        </mxCell>
        <mxCell id="vEjdfM-KKYpxFgrzCALx-74" value="&lt;div&gt;Arch.&lt;/div&gt;&lt;div&gt;Dest Reg&lt;/div&gt;" style="edgeLabel;html=1;align=center;verticalAlign=middle;resizable=0;points=[];" connectable="0" vertex="1" parent="vEjdfM-KKYpxFgrzCALx-73">
          <mxGeometry x="0.7667" y="2" relative="1" as="geometry">
            <mxPoint x="-172" y="-14" as="offset" />
          </mxGeometry>
        </mxCell>
        <mxCell id="hJbOz-DI_iZiivcrF6Y0-54" value="FP&lt;div&gt;issue&lt;/div&gt;&lt;div&gt;unit&lt;/div&gt;" style="rounded=1;whiteSpace=wrap;html=1;fontStyle=1" vertex="1" parent="1">
          <mxGeometry x="1900" y="320" width="50" height="229" as="geometry" />
        </mxCell>
        <mxCell id="hJbOz-DI_iZiivcrF6Y0-55" value="BR issue&lt;div&gt;unit&lt;/div&gt;" style="rounded=1;whiteSpace=wrap;html=1;fontStyle=1" vertex="1" parent="1">
          <mxGeometry x="1900" y="569" width="50" height="229" as="geometry" />
        </mxCell>
        <mxCell id="hJbOz-DI_iZiivcrF6Y0-56" value="MEM&lt;div&gt;issue&lt;/div&gt;&lt;div&gt;unit&lt;/div&gt;" style="rounded=1;whiteSpace=wrap;html=1;fontStyle=1" vertex="1" parent="1">
          <mxGeometry x="1900" y="819" width="50" height="229" as="geometry" />
        </mxCell>
        <mxCell id="hJbOz-DI_iZiivcrF6Y0-57" value="ALU&lt;div&gt;issue&lt;/div&gt;&lt;div&gt;unit&lt;/div&gt;" style="rounded=1;whiteSpace=wrap;html=1;fontStyle=1" vertex="1" parent="1">
          <mxGeometry x="1900" y="1061" width="50" height="229" as="geometry" />
        </mxCell>
        <mxCell id="hJbOz-DI_iZiivcrF6Y0-58" value="Busy&lt;div&gt;Mux&lt;/div&gt;" style="verticalLabelPosition=middle;verticalAlign=middle;html=1;shape=trapezoid;perimeter=trapezoidPerimeter;whiteSpace=wrap;size=0.23;arcSize=10;flipV=1;labelPosition=center;align=center;direction=south;fontStyle=1" vertex="1" parent="1">
          <mxGeometry x="1730" y="1109.25" width="30" height="132.5" as="geometry" />
        </mxCell>
        <mxCell id="vEjdfM-KKYpxFgrzCALx-90" value="INSTRUCTION DATA (opcode, valid, etc)" style="shape=singleArrow;whiteSpace=wrap;html=1;" vertex="1" parent="1">
          <mxGeometry x="869" y="900" width="251" height="42" as="geometry" />
        </mxCell>
        <mxCell id="hJbOz-DI_iZiivcrF6Y0-59" value="Busy&lt;div&gt;Mux&lt;/div&gt;" style="verticalLabelPosition=middle;verticalAlign=middle;html=1;shape=trapezoid;perimeter=trapezoidPerimeter;whiteSpace=wrap;size=0.23;arcSize=10;flipV=1;labelPosition=center;align=center;direction=south;fontStyle=1" vertex="1" parent="1">
          <mxGeometry x="1730" y="867.25" width="30" height="132.5" as="geometry" />
        </mxCell>
        <mxCell id="hJbOz-DI_iZiivcrF6Y0-60" value="Busy&lt;div&gt;Mux&lt;/div&gt;" style="verticalLabelPosition=middle;verticalAlign=middle;html=1;shape=trapezoid;perimeter=trapezoidPerimeter;whiteSpace=wrap;size=0.23;arcSize=10;flipV=1;labelPosition=center;align=center;direction=south;fontStyle=1" vertex="1" parent="1">
          <mxGeometry x="1730" y="617.25" width="30" height="132.5" as="geometry" />
        </mxCell>
        <mxCell id="hJbOz-DI_iZiivcrF6Y0-61" value="Busy&lt;div&gt;Mux&lt;/div&gt;" style="verticalLabelPosition=middle;verticalAlign=middle;html=1;shape=trapezoid;perimeter=trapezoidPerimeter;whiteSpace=wrap;size=0.23;arcSize=10;flipV=1;labelPosition=center;align=center;direction=south;fontStyle=1" vertex="1" parent="1">
          <mxGeometry x="1730" y="368.25" width="30" height="132.5" as="geometry" />
        </mxCell>
        <mxCell id="hJbOz-DI_iZiivcrF6Y0-62" value="" style="endArrow=classic;html=1;rounded=0;exitX=-0.066;exitY=0.905;exitDx=0;exitDy=0;exitPerimeter=0;entryX=1;entryY=0.5;entryDx=0;entryDy=0;" edge="1" parent="1" source="hJbOz-DI_iZiivcrF6Y0-57" target="hJbOz-DI_iZiivcrF6Y0-58">
          <mxGeometry width="50" height="50" relative="1" as="geometry">
            <mxPoint x="1800" y="1120" as="sourcePoint" />
            <mxPoint x="1910" y="990" as="targetPoint" />
            <Array as="points">
              <mxPoint x="1745" y="1268" />
            </Array>
          </mxGeometry>
        </mxCell>
        <mxCell id="hJbOz-DI_iZiivcrF6Y0-63" value="" style="endArrow=classic;html=1;rounded=0;exitX=-0.066;exitY=0.905;exitDx=0;exitDy=0;exitPerimeter=0;entryX=1;entryY=0.5;entryDx=0;entryDy=0;" edge="1" parent="1">
          <mxGeometry width="50" height="50" relative="1" as="geometry">
            <mxPoint x="1900" y="1021" as="sourcePoint" />
            <mxPoint x="1748" y="980" as="targetPoint" />
            <Array as="points">
              <mxPoint x="1748" y="1021" />
            </Array>
          </mxGeometry>
        </mxCell>
        <mxCell id="hJbOz-DI_iZiivcrF6Y0-64" value="" style="endArrow=classic;html=1;rounded=0;exitX=-0.066;exitY=0.905;exitDx=0;exitDy=0;exitPerimeter=0;entryX=1;entryY=0.5;entryDx=0;entryDy=0;" edge="1" parent="1">
          <mxGeometry width="50" height="50" relative="1" as="geometry">
            <mxPoint x="1900" y="773.25" as="sourcePoint" />
            <mxPoint x="1748" y="732.25" as="targetPoint" />
            <Array as="points">
              <mxPoint x="1748" y="773.25" />
            </Array>
          </mxGeometry>
        </mxCell>
        <mxCell id="hJbOz-DI_iZiivcrF6Y0-65" value="" style="endArrow=classic;html=1;rounded=0;exitX=-0.066;exitY=0.905;exitDx=0;exitDy=0;exitPerimeter=0;entryX=1;entryY=0.5;entryDx=0;entryDy=0;" edge="1" parent="1">
          <mxGeometry width="50" height="50" relative="1" as="geometry">
            <mxPoint x="1900" y="523" as="sourcePoint" />
            <mxPoint x="1748" y="482" as="targetPoint" />
            <Array as="points">
              <mxPoint x="1748" y="523" />
            </Array>
          </mxGeometry>
        </mxCell>
        <mxCell id="hJbOz-DI_iZiivcrF6Y0-67" value="" style="endArrow=classic;html=1;rounded=0;entryX=0.75;entryY=1;entryDx=0;entryDy=0;" edge="1" parent="1" target="hJbOz-DI_iZiivcrF6Y0-58">
          <mxGeometry width="50" height="50" relative="1" as="geometry">
            <mxPoint x="1700" y="1209" as="sourcePoint" />
            <mxPoint x="1910" y="850" as="targetPoint" />
          </mxGeometry>
        </mxCell>
        <mxCell id="hJbOz-DI_iZiivcrF6Y0-68" value="Do Nothing" style="text;strokeColor=none;align=center;fillColor=none;html=1;verticalAlign=middle;whiteSpace=wrap;rounded=0;" vertex="1" parent="1">
          <mxGeometry x="1640" y="1190" width="60" height="30" as="geometry" />
        </mxCell>
        <mxCell id="hJbOz-DI_iZiivcrF6Y0-70" value="Busy?" style="text;strokeColor=none;align=center;fillColor=none;html=1;verticalAlign=middle;whiteSpace=wrap;rounded=0;" vertex="1" parent="1">
          <mxGeometry x="1840" y="1241.75" width="60" height="30" as="geometry" />
        </mxCell>
        <mxCell id="hJbOz-DI_iZiivcrF6Y0-75" value="" style="endArrow=classic;html=1;rounded=0;entryX=0.75;entryY=1;entryDx=0;entryDy=0;" edge="1" parent="1">
          <mxGeometry width="50" height="50" relative="1" as="geometry">
            <mxPoint x="1700" y="966.29" as="sourcePoint" />
            <mxPoint x="1730" y="966.29" as="targetPoint" />
          </mxGeometry>
        </mxCell>
        <mxCell id="hJbOz-DI_iZiivcrF6Y0-77" value="" style="endArrow=classic;html=1;rounded=0;entryX=0.75;entryY=1;entryDx=0;entryDy=0;" edge="1" parent="1">
          <mxGeometry width="50" height="50" relative="1" as="geometry">
            <mxPoint x="1700" y="715" as="sourcePoint" />
            <mxPoint x="1730" y="715" as="targetPoint" />
          </mxGeometry>
        </mxCell>
        <mxCell id="hJbOz-DI_iZiivcrF6Y0-79" value="" style="endArrow=classic;html=1;rounded=0;entryX=0.75;entryY=1;entryDx=0;entryDy=0;" edge="1" parent="1">
          <mxGeometry width="50" height="50" relative="1" as="geometry">
            <mxPoint x="1700" y="470" as="sourcePoint" />
            <mxPoint x="1730" y="470" as="targetPoint" />
          </mxGeometry>
        </mxCell>
        <mxCell id="hJbOz-DI_iZiivcrF6Y0-83" value="Do Nothing" style="text;strokeColor=none;align=center;fillColor=none;html=1;verticalAlign=middle;whiteSpace=wrap;rounded=0;" vertex="1" parent="1">
          <mxGeometry x="1670" y="970" width="60" height="36" as="geometry" />
        </mxCell>
        <mxCell id="hJbOz-DI_iZiivcrF6Y0-84" value="Do Nothing" style="text;strokeColor=none;align=center;fillColor=none;html=1;verticalAlign=middle;whiteSpace=wrap;rounded=0;" vertex="1" parent="1">
          <mxGeometry x="1670" y="715" width="60" height="36" as="geometry" />
        </mxCell>
        <mxCell id="hJbOz-DI_iZiivcrF6Y0-85" value="Do Nothing" style="text;strokeColor=none;align=center;fillColor=none;html=1;verticalAlign=middle;whiteSpace=wrap;rounded=0;" vertex="1" parent="1">
          <mxGeometry x="1680" y="472" width="60" height="36" as="geometry" />
        </mxCell>
        <mxCell id="hJbOz-DI_iZiivcrF6Y0-87" value="rs1/2&lt;div&gt;ready?&lt;/div&gt;" style="rhombus;whiteSpace=wrap;html=1;fontStyle=1" vertex="1" parent="1">
          <mxGeometry x="1800" y="360" width="80" height="80" as="geometry" />
        </mxCell>
        <mxCell id="hJbOz-DI_iZiivcrF6Y0-88" value="rs1/2&lt;div&gt;ready?&lt;/div&gt;" style="rhombus;whiteSpace=wrap;html=1;fontStyle=1" vertex="1" parent="1">
          <mxGeometry x="1800" y="590" width="80" height="80" as="geometry" />
        </mxCell>
        <mxCell id="hJbOz-DI_iZiivcrF6Y0-89" value="rs1/2&lt;div&gt;ready?&lt;/div&gt;" style="rhombus;whiteSpace=wrap;html=1;fontStyle=1" vertex="1" parent="1">
          <mxGeometry x="1800" y="843" width="80" height="80" as="geometry" />
        </mxCell>
        <mxCell id="hJbOz-DI_iZiivcrF6Y0-90" value="rs1/2&lt;div&gt;ready?&lt;/div&gt;" style="rhombus;whiteSpace=wrap;html=1;fontStyle=1" vertex="1" parent="1">
          <mxGeometry x="1800" y="1097" width="80" height="80" as="geometry" />
        </mxCell>
        <mxCell id="hJbOz-DI_iZiivcrF6Y0-91" value="" style="endArrow=classic;html=1;rounded=0;entryX=0;entryY=0.5;entryDx=0;entryDy=0;exitX=0.497;exitY=0.064;exitDx=0;exitDy=0;exitPerimeter=0;" edge="1" parent="1" source="hJbOz-DI_iZiivcrF6Y0-59" target="hJbOz-DI_iZiivcrF6Y0-89">
          <mxGeometry width="50" height="50" relative="1" as="geometry">
            <mxPoint x="1690" y="860" as="sourcePoint" />
            <mxPoint x="1910" y="770" as="targetPoint" />
            <Array as="points">
              <mxPoint x="1780" y="934" />
              <mxPoint x="1800" y="934" />
            </Array>
          </mxGeometry>
        </mxCell>
        <mxCell id="hJbOz-DI_iZiivcrF6Y0-92" value="" style="endArrow=classic;html=1;rounded=0;entryX=0;entryY=0.5;entryDx=0;entryDy=0;exitX=0.5;exitY=0;exitDx=0;exitDy=0;" edge="1" parent="1" source="hJbOz-DI_iZiivcrF6Y0-58" target="hJbOz-DI_iZiivcrF6Y0-90">
          <mxGeometry width="50" height="50" relative="1" as="geometry">
            <mxPoint x="1690" y="1090" as="sourcePoint" />
            <mxPoint x="1910" y="770" as="targetPoint" />
            <Array as="points">
              <mxPoint x="1780" y="1176" />
              <mxPoint x="1780" y="1137" />
            </Array>
          </mxGeometry>
        </mxCell>
        <mxCell id="hJbOz-DI_iZiivcrF6Y0-93" value="" style="endArrow=classic;html=1;rounded=0;entryX=0;entryY=0.5;entryDx=0;entryDy=0;exitX=0.5;exitY=0;exitDx=0;exitDy=0;" edge="1" parent="1" source="hJbOz-DI_iZiivcrF6Y0-60" target="hJbOz-DI_iZiivcrF6Y0-88">
          <mxGeometry width="50" height="50" relative="1" as="geometry">
            <mxPoint x="1690" y="650" as="sourcePoint" />
            <mxPoint x="1910" y="770" as="targetPoint" />
            <Array as="points">
              <mxPoint x="1800" y="683" />
            </Array>
          </mxGeometry>
        </mxCell>
        <mxCell id="hJbOz-DI_iZiivcrF6Y0-94" value="" style="endArrow=classic;html=1;rounded=0;entryX=0;entryY=0.5;entryDx=0;entryDy=0;exitX=0.5;exitY=0;exitDx=0;exitDy=0;" edge="1" parent="1" source="hJbOz-DI_iZiivcrF6Y0-61" target="hJbOz-DI_iZiivcrF6Y0-87">
          <mxGeometry width="50" height="50" relative="1" as="geometry">
            <mxPoint x="1690" y="400" as="sourcePoint" />
            <mxPoint x="1910" y="480" as="targetPoint" />
            <Array as="points">
              <mxPoint x="1800" y="435" />
            </Array>
          </mxGeometry>
        </mxCell>
        <mxCell id="vEjdfM-KKYpxFgrzCALx-111" value="" style="shape=flexArrow;endArrow=classic;html=1;rounded=0;exitX=1.067;exitY=0.067;exitDx=0;exitDy=0;exitPerimeter=0;" edge="1" parent="1" source="tmGiLWiuq_pXPjT5mu-G-3">
          <mxGeometry width="50" height="50" relative="1" as="geometry">
            <mxPoint x="1301" y="600" as="sourcePoint" />
            <mxPoint x="1610" y="60" as="targetPoint" />
            <Array as="points">
              <mxPoint x="1301" y="565" />
              <mxPoint x="1300.68" y="60" />
            </Array>
          </mxGeometry>
        </mxCell>
        <mxCell id="vEjdfM-KKYpxFgrzCALx-112" value="&lt;div&gt;ROB Allocation Data&lt;/div&gt;&lt;div&gt;(addr, paddr, status, etc.)&lt;/div&gt;" style="edgeLabel;html=1;align=center;verticalAlign=middle;resizable=0;points=[];" connectable="0" vertex="1" parent="vEjdfM-KKYpxFgrzCALx-111">
          <mxGeometry x="-0.0572" y="-5" relative="1" as="geometry">
            <mxPoint x="-6" y="265" as="offset" />
          </mxGeometry>
        </mxCell>
        <mxCell id="hJbOz-DI_iZiivcrF6Y0-108" value="" style="endArrow=none;html=1;rounded=0;entryX=0;entryY=0.5;entryDx=0;entryDy=0;exitX=1;exitY=0.5;exitDx=0;exitDy=0;" edge="1" parent="1" source="hJbOz-DI_iZiivcrF6Y0-54" target="wpYnhnTJWM2q-OIGQQ5s-73">
          <mxGeometry width="50" height="50" relative="1" as="geometry">
            <mxPoint x="1780" y="600" as="sourcePoint" />
            <mxPoint x="1830" y="550" as="targetPoint" />
          </mxGeometry>
        </mxCell>
        <mxCell id="hJbOz-DI_iZiivcrF6Y0-109" value="" style="endArrow=none;html=1;rounded=0;entryX=0;entryY=0.5;entryDx=0;entryDy=0;exitX=1;exitY=0.5;exitDx=0;exitDy=0;" edge="1" parent="1" source="hJbOz-DI_iZiivcrF6Y0-55" target="wpYnhnTJWM2q-OIGQQ5s-74">
          <mxGeometry width="50" height="50" relative="1" as="geometry">
            <mxPoint x="1780" y="720" as="sourcePoint" />
            <mxPoint x="1830" y="670" as="targetPoint" />
          </mxGeometry>
        </mxCell>
        <mxCell id="hJbOz-DI_iZiivcrF6Y0-110" value="" style="endArrow=none;html=1;rounded=0;entryX=0;entryY=0.5;entryDx=0;entryDy=0;exitX=1;exitY=0.5;exitDx=0;exitDy=0;" edge="1" parent="1" source="hJbOz-DI_iZiivcrF6Y0-56" target="wpYnhnTJWM2q-OIGQQ5s-75">
          <mxGeometry width="50" height="50" relative="1" as="geometry">
            <mxPoint x="1780" y="840" as="sourcePoint" />
            <mxPoint x="1830" y="790" as="targetPoint" />
          </mxGeometry>
        </mxCell>
        <mxCell id="hJbOz-DI_iZiivcrF6Y0-111" value="" style="endArrow=none;html=1;rounded=0;entryX=0;entryY=0.5;entryDx=0;entryDy=0;exitX=1;exitY=0.5;exitDx=0;exitDy=0;" edge="1" parent="1" source="hJbOz-DI_iZiivcrF6Y0-57" target="wpYnhnTJWM2q-OIGQQ5s-76">
          <mxGeometry width="50" height="50" relative="1" as="geometry">
            <mxPoint x="1780" y="950" as="sourcePoint" />
            <mxPoint x="1830" y="900" as="targetPoint" />
          </mxGeometry>
        </mxCell>
        <mxCell id="hJbOz-DI_iZiivcrF6Y0-112" value="" style="endArrow=classic;html=1;rounded=0;entryX=0;entryY=0.5;entryDx=0;entryDy=0;exitX=1;exitY=1;exitDx=0;exitDy=0;" edge="1" parent="1" source="hJbOz-DI_iZiivcrF6Y0-87" target="hJbOz-DI_iZiivcrF6Y0-54">
          <mxGeometry width="50" height="50" relative="1" as="geometry">
            <mxPoint x="1780" y="600" as="sourcePoint" />
            <mxPoint x="1830" y="550" as="targetPoint" />
            <Array as="points">
              <mxPoint x="1860" y="435" />
            </Array>
          </mxGeometry>
        </mxCell>
        <mxCell id="hJbOz-DI_iZiivcrF6Y0-113" value="" style="endArrow=classic;html=1;rounded=0;entryX=0;entryY=0.5;entryDx=0;entryDy=0;exitX=1;exitY=1;exitDx=0;exitDy=0;" edge="1" parent="1" source="hJbOz-DI_iZiivcrF6Y0-88" target="hJbOz-DI_iZiivcrF6Y0-55">
          <mxGeometry width="50" height="50" relative="1" as="geometry">
            <mxPoint x="1780" y="840" as="sourcePoint" />
            <mxPoint x="1830" y="790" as="targetPoint" />
            <Array as="points">
              <mxPoint x="1860" y="684" />
            </Array>
          </mxGeometry>
        </mxCell>
        <mxCell id="hJbOz-DI_iZiivcrF6Y0-114" value="" style="endArrow=classic;html=1;rounded=0;entryX=0;entryY=0.5;entryDx=0;entryDy=0;exitX=1;exitY=1;exitDx=0;exitDy=0;" edge="1" parent="1" source="hJbOz-DI_iZiivcrF6Y0-89" target="hJbOz-DI_iZiivcrF6Y0-56">
          <mxGeometry width="50" height="50" relative="1" as="geometry">
            <mxPoint x="1780" y="1070" as="sourcePoint" />
            <mxPoint x="1830" y="1020" as="targetPoint" />
            <Array as="points">
              <mxPoint x="1860" y="934" />
            </Array>
          </mxGeometry>
        </mxCell>
        <mxCell id="hJbOz-DI_iZiivcrF6Y0-115" value="" style="endArrow=classic;html=1;rounded=0;entryX=0;entryY=0.5;entryDx=0;entryDy=0;exitX=1;exitY=1;exitDx=0;exitDy=0;" edge="1" parent="1" source="hJbOz-DI_iZiivcrF6Y0-90" target="hJbOz-DI_iZiivcrF6Y0-57">
          <mxGeometry width="50" height="50" relative="1" as="geometry">
            <mxPoint x="1780" y="1070" as="sourcePoint" />
            <mxPoint x="1830" y="1020" as="targetPoint" />
            <Array as="points">
              <mxPoint x="1860" y="1176" />
            </Array>
          </mxGeometry>
        </mxCell>
        <mxCell id="hJbOz-DI_iZiivcrF6Y0-117" value="" style="endArrow=classic;html=1;rounded=0;exitX=1;exitY=0.5;exitDx=0;exitDy=0;entryX=0;entryY=0.5;entryDx=0;entryDy=0;" edge="1" parent="1" source="wpYnhnTJWM2q-OIGQQ5s-73" target="8kcCSNlDScjl7W__Mixc-10">
          <mxGeometry width="50" height="50" relative="1" as="geometry">
            <mxPoint x="2200" y="710" as="sourcePoint" />
            <mxPoint x="2250" y="660" as="targetPoint" />
          </mxGeometry>
        </mxCell>
        <mxCell id="hJbOz-DI_iZiivcrF6Y0-118" value="" style="endArrow=classic;html=1;rounded=0;exitX=1;exitY=0.5;exitDx=0;exitDy=0;entryX=0;entryY=0.5;entryDx=0;entryDy=0;" edge="1" parent="1" source="8kcCSNlDScjl7W__Mixc-10" target="8kcCSNlDScjl7W__Mixc-14">
          <mxGeometry width="50" height="50" relative="1" as="geometry">
            <mxPoint x="2200" y="710" as="sourcePoint" />
            <mxPoint x="2250" y="660" as="targetPoint" />
          </mxGeometry>
        </mxCell>
        <mxCell id="hJbOz-DI_iZiivcrF6Y0-119" value="" style="endArrow=classic;html=1;rounded=0;exitX=1;exitY=0.5;exitDx=0;exitDy=0;" edge="1" parent="1" source="wpYnhnTJWM2q-OIGQQ5s-74">
          <mxGeometry width="50" height="50" relative="1" as="geometry">
            <mxPoint x="2200" y="710" as="sourcePoint" />
            <mxPoint x="2480" y="683" as="targetPoint" />
          </mxGeometry>
        </mxCell>
        <mxCell id="hJbOz-DI_iZiivcrF6Y0-120" value="" style="endArrow=classic;html=1;rounded=0;exitX=1;exitY=0.5;exitDx=0;exitDy=0;entryX=0;entryY=0.5;entryDx=0;entryDy=0;" edge="1" parent="1" source="wpYnhnTJWM2q-OIGQQ5s-75" target="EPYlxIZpCImcWWyEMKS_-28">
          <mxGeometry width="50" height="50" relative="1" as="geometry">
            <mxPoint x="2200" y="830" as="sourcePoint" />
            <mxPoint x="2250" y="780" as="targetPoint" />
          </mxGeometry>
        </mxCell>
        <mxCell id="hJbOz-DI_iZiivcrF6Y0-121" value="" style="endArrow=classic;html=1;rounded=0;exitX=1;exitY=0.5;exitDx=0;exitDy=0;" edge="1" parent="1" source="8kcCSNlDScjl7W__Mixc-12">
          <mxGeometry width="50" height="50" relative="1" as="geometry">
            <mxPoint x="2200" y="950" as="sourcePoint" />
            <mxPoint x="2480" y="934" as="targetPoint" />
          </mxGeometry>
        </mxCell>
        <mxCell id="hJbOz-DI_iZiivcrF6Y0-122" value="" style="endArrow=classic;html=1;rounded=0;exitX=1;exitY=0.5;exitDx=0;exitDy=0;" edge="1" parent="1" source="wpYnhnTJWM2q-OIGQQ5s-76">
          <mxGeometry width="50" height="50" relative="1" as="geometry">
            <mxPoint x="2200" y="950" as="sourcePoint" />
            <mxPoint x="2480" y="1175" as="targetPoint" />
          </mxGeometry>
        </mxCell>
        <mxCell id="hJbOz-DI_iZiivcrF6Y0-123" value="" style="endArrow=classic;html=1;rounded=0;exitX=1;exitY=0.5;exitDx=0;exitDy=0;" edge="1" parent="1" source="8kcCSNlDScjl7W__Mixc-14">
          <mxGeometry width="50" height="50" relative="1" as="geometry">
            <mxPoint x="2200" y="590" as="sourcePoint" />
            <mxPoint x="2480" y="434" as="targetPoint" />
          </mxGeometry>
        </mxCell>
        <mxCell id="59eEeYQ3Ve1wWNyKsLEn-131" style="edgeStyle=orthogonalEdgeStyle;rounded=0;orthogonalLoop=1;jettySize=auto;html=1;entryX=1;entryY=0.5;entryDx=0;entryDy=0;" edge="1" parent="1" source="vEjdfM-KKYpxFgrzCALx-174" target="59eEeYQ3Ve1wWNyKsLEn-119">
          <mxGeometry relative="1" as="geometry">
            <Array as="points">
              <mxPoint x="3070" y="32" />
            </Array>
          </mxGeometry>
        </mxCell>
        <mxCell id="59eEeYQ3Ve1wWNyKsLEn-143" style="edgeStyle=orthogonalEdgeStyle;rounded=0;orthogonalLoop=1;jettySize=auto;html=1;" edge="1" parent="1" source="vEjdfM-KKYpxFgrzCALx-174">
          <mxGeometry relative="1" as="geometry">
            <mxPoint x="3270" y="647.5" as="targetPoint" />
          </mxGeometry>
        </mxCell>
        <mxCell id="vEjdfM-KKYpxFgrzCALx-174" value="&lt;b&gt;RRF&lt;/b&gt;" style="rounded=0;whiteSpace=wrap;html=1;" vertex="1" parent="1">
          <mxGeometry x="2990" y="508" width="140" height="279" as="geometry" />
        </mxCell>
        <mxCell id="hJbOz-DI_iZiivcrF6Y0-124" value="&lt;b&gt;MEM-WB&lt;/b&gt;" style="rounded=0;whiteSpace=wrap;html=1;" vertex="1" parent="1">
          <mxGeometry x="2480" y="819" width="130" height="230" as="geometry" />
        </mxCell>
        <mxCell id="hJbOz-DI_iZiivcrF6Y0-125" value="&lt;b&gt;BR-WB&lt;/b&gt;" style="rounded=0;whiteSpace=wrap;html=1;" vertex="1" parent="1">
          <mxGeometry x="2480" y="569" width="130" height="230" as="geometry" />
        </mxCell>
        <mxCell id="hJbOz-DI_iZiivcrF6Y0-126" value="&lt;b&gt;FP-WB&lt;/b&gt;" style="rounded=0;whiteSpace=wrap;html=1;" vertex="1" parent="1">
          <mxGeometry x="2480" y="320" width="130" height="230" as="geometry" />
        </mxCell>
        <mxCell id="hJbOz-DI_iZiivcrF6Y0-127" value="&lt;b&gt;ALU-WB&lt;/b&gt;" style="rounded=0;whiteSpace=wrap;html=1;" vertex="1" parent="1">
          <mxGeometry x="2480" y="1060" width="130" height="230" as="geometry" />
        </mxCell>
        <mxCell id="59eEeYQ3Ve1wWNyKsLEn-89" style="edgeStyle=orthogonalEdgeStyle;rounded=0;orthogonalLoop=1;jettySize=auto;html=1;entryX=0;entryY=0.5;entryDx=0;entryDy=0;" edge="1" parent="1" source="EPYlxIZpCImcWWyEMKS_-28" target="8kcCSNlDScjl7W__Mixc-12">
          <mxGeometry relative="1" as="geometry" />
        </mxCell>
        <mxCell id="EPYlxIZpCImcWWyEMKS_-28" value="&lt;div&gt;&lt;b&gt;LOAD-STORE&lt;/b&gt;&lt;/div&gt;&lt;div&gt;&lt;b&gt;QUEUE (LSQ)&lt;/b&gt;&lt;/div&gt;" style="rounded=0;whiteSpace=wrap;html=1;" vertex="1" parent="1">
          <mxGeometry x="2120" y="819" width="130" height="230" as="geometry" />
        </mxCell>
        <mxCell id="EPYlxIZpCImcWWyEMKS_-31" value="{v, status, type, rd_paddr, rd_addr, br_pred, br_result}" style="text;html=1;align=center;verticalAlign=middle;resizable=0;points=[];autosize=1;strokeColor=none;fillColor=none;" vertex="1" parent="1">
          <mxGeometry x="2089.5" y="70" width="310" height="30" as="geometry" />
        </mxCell>
        <mxCell id="EPYlxIZpCImcWWyEMKS_-32" value="{v, renamed, paddr, data}" style="text;html=1;align=center;verticalAlign=middle;resizable=0;points=[];autosize=1;strokeColor=none;fillColor=none;" vertex="1" parent="1">
          <mxGeometry x="845" y="340" width="160" height="30" as="geometry" />
        </mxCell>
        <mxCell id="EPYlxIZpCImcWWyEMKS_-33" value="{v, data}" style="text;html=1;align=center;verticalAlign=middle;resizable=0;points=[];autosize=1;strokeColor=none;fillColor=none;" vertex="1" parent="1">
          <mxGeometry x="1119" y="290" width="70" height="30" as="geometry" />
        </mxCell>
        <mxCell id="EPYlxIZpCImcWWyEMKS_-41" style="edgeStyle=orthogonalEdgeStyle;rounded=0;orthogonalLoop=1;jettySize=auto;html=1;exitX=1;exitY=0.5;exitDx=0;exitDy=0;entryX=0.102;entryY=1.053;entryDx=0;entryDy=0;entryPerimeter=0;" edge="1" parent="1" source="hJbOz-DI_iZiivcrF6Y0-126" target="59eEeYQ3Ve1wWNyKsLEn-90">
          <mxGeometry relative="1" as="geometry">
            <mxPoint x="2640" y="434.46000000000004" as="targetPoint" />
          </mxGeometry>
        </mxCell>
        <mxCell id="EPYlxIZpCImcWWyEMKS_-43" value="{v, instr,&amp;nbsp; rdy, rs1, rdy, rs2, rd}" style="text;html=1;align=center;verticalAlign=middle;resizable=0;points=[];autosize=1;strokeColor=none;fillColor=none;" vertex="1" parent="1">
          <mxGeometry x="1413" y="1108" width="180" height="30" as="geometry" />
        </mxCell>
        <mxCell id="EPYlxIZpCImcWWyEMKS_-48" value="&lt;div&gt;&lt;span&gt;Free List&lt;/span&gt;&lt;/div&gt;&lt;div&gt;Queue&lt;/div&gt;" style="rounded=0;whiteSpace=wrap;html=1;direction=south;fontStyle=1" vertex="1" parent="1">
          <mxGeometry x="2930.5" y="933" width="279" height="140" as="geometry" />
        </mxCell>
        <mxCell id="EPYlxIZpCImcWWyEMKS_-58" value="Broadcast to CDB" style="text;html=1;align=center;verticalAlign=middle;whiteSpace=wrap;rounded=0;" vertex="1" parent="1">
          <mxGeometry x="2800" y="210" width="125" height="30" as="geometry" />
        </mxCell>
        <mxCell id="59eEeYQ3Ve1wWNyKsLEn-2" style="edgeStyle=orthogonalEdgeStyle;rounded=0;orthogonalLoop=1;jettySize=auto;html=1;" edge="1" parent="1">
          <mxGeometry relative="1" as="geometry">
            <mxPoint x="739" y="1043" as="sourcePoint" />
            <mxPoint x="1120" y="1043" as="targetPoint" />
            <Array as="points" />
          </mxGeometry>
        </mxCell>
        <mxCell id="59eEeYQ3Ve1wWNyKsLEn-3" value="PC" style="edgeLabel;html=1;align=center;verticalAlign=middle;resizable=0;points=[];" connectable="0" vertex="1" parent="59eEeYQ3Ve1wWNyKsLEn-2">
          <mxGeometry x="-0.5939" y="-3" relative="1" as="geometry">
            <mxPoint x="-15" y="7" as="offset" />
          </mxGeometry>
        </mxCell>
        <mxCell id="59eEeYQ3Ve1wWNyKsLEn-7" value="" style="endArrow=classic;html=1;rounded=0;" edge="1" parent="1">
          <mxGeometry width="50" height="50" relative="1" as="geometry">
            <mxPoint x="920" y="740" as="sourcePoint" />
            <mxPoint x="920" y="460" as="targetPoint" />
          </mxGeometry>
        </mxCell>
        <mxCell id="59eEeYQ3Ve1wWNyKsLEn-8" value="&lt;div&gt;Arch.&lt;/div&gt;&lt;div&gt;Source Regs&lt;/div&gt;" style="text;html=1;align=center;verticalAlign=middle;resizable=0;points=[];autosize=1;strokeColor=none;fillColor=none;" vertex="1" parent="1">
          <mxGeometry x="920" y="705" width="90" height="40" as="geometry" />
        </mxCell>
        <mxCell id="59eEeYQ3Ve1wWNyKsLEn-9" value="" style="endArrow=classic;html=1;rounded=0;entryX=-0.059;entryY=0.183;entryDx=0;entryDy=0;entryPerimeter=0;" edge="1" parent="1" target="tmGiLWiuq_pXPjT5mu-G-3">
          <mxGeometry width="50" height="50" relative="1" as="geometry">
            <mxPoint x="980" y="630" as="sourcePoint" />
            <mxPoint x="1030" y="580" as="targetPoint" />
          </mxGeometry>
        </mxCell>
        <mxCell id="59eEeYQ3Ve1wWNyKsLEn-10" value="&lt;div&gt;Phys.&lt;/div&gt;&lt;div&gt;Source Regs&lt;/div&gt;" style="text;html=1;align=center;verticalAlign=middle;resizable=0;points=[];autosize=1;strokeColor=none;fillColor=none;" vertex="1" parent="1">
          <mxGeometry x="1000" y="590" width="90" height="40" as="geometry" />
        </mxCell>
        <mxCell id="59eEeYQ3Ve1wWNyKsLEn-11" value="" style="endArrow=classic;html=1;rounded=0;entryX=0;entryY=0.38;entryDx=0;entryDy=0;entryPerimeter=0;" edge="1" parent="1" target="tmGiLWiuq_pXPjT5mu-G-3">
          <mxGeometry width="50" height="50" relative="1" as="geometry">
            <mxPoint x="870" y="740" as="sourcePoint" />
            <mxPoint x="1186" y="740" as="targetPoint" />
          </mxGeometry>
        </mxCell>
        <mxCell id="tmGiLWiuq_pXPjT5mu-G-3" value="&lt;b&gt;ID_RN/DIS&lt;/b&gt;" style="rounded=0;whiteSpace=wrap;html=1;" vertex="1" parent="1">
          <mxGeometry x="1120" y="527" width="60" height="560" as="geometry" />
        </mxCell>
        <mxCell id="59eEeYQ3Ve1wWNyKsLEn-13" value="" style="triangle;whiteSpace=wrap;html=1;" vertex="1" parent="1">
          <mxGeometry x="1120" y="1053" width="20" height="20" as="geometry" />
        </mxCell>
        <mxCell id="59eEeYQ3Ve1wWNyKsLEn-14" value="" style="endArrow=none;html=1;rounded=0;" edge="1" parent="1">
          <mxGeometry width="50" height="50" relative="1" as="geometry">
            <mxPoint x="980" y="630" as="sourcePoint" />
            <mxPoint x="980" y="450" as="targetPoint" />
          </mxGeometry>
        </mxCell>
        <mxCell id="59eEeYQ3Ve1wWNyKsLEn-23" style="edgeStyle=orthogonalEdgeStyle;rounded=0;orthogonalLoop=1;jettySize=auto;html=1;entryX=0;entryY=0.5;entryDx=0;entryDy=0;exitX=0.158;exitY=0.026;exitDx=0;exitDy=0;exitPerimeter=0;" edge="1" parent="1" source="59eEeYQ3Ve1wWNyKsLEn-16" target="wpYnhnTJWM2q-OIGQQ5s-34">
          <mxGeometry relative="1" as="geometry">
            <Array as="points">
              <mxPoint x="1268" y="680" />
              <mxPoint x="1360" y="680" />
              <mxPoint x="1360" y="604" />
            </Array>
          </mxGeometry>
        </mxCell>
        <mxCell id="59eEeYQ3Ve1wWNyKsLEn-24" style="edgeStyle=orthogonalEdgeStyle;rounded=0;orthogonalLoop=1;jettySize=auto;html=1;entryX=0;entryY=0.5;entryDx=0;entryDy=0;" edge="1" parent="1" source="59eEeYQ3Ve1wWNyKsLEn-16" target="9TAhi3XfBYmtLasGSoGz-14">
          <mxGeometry relative="1" as="geometry">
            <Array as="points">
              <mxPoint x="1360" y="796" />
              <mxPoint x="1360" y="754" />
            </Array>
          </mxGeometry>
        </mxCell>
        <mxCell id="59eEeYQ3Ve1wWNyKsLEn-25" style="edgeStyle=orthogonalEdgeStyle;rounded=0;orthogonalLoop=1;jettySize=auto;html=1;entryX=0;entryY=0.5;entryDx=0;entryDy=0;" edge="1" parent="1" source="59eEeYQ3Ve1wWNyKsLEn-16" target="wpYnhnTJWM2q-OIGQQ5s-20">
          <mxGeometry relative="1" as="geometry">
            <Array as="points">
              <mxPoint x="1360" y="820" />
              <mxPoint x="1360" y="904" />
            </Array>
          </mxGeometry>
        </mxCell>
        <mxCell id="59eEeYQ3Ve1wWNyKsLEn-26" style="edgeStyle=orthogonalEdgeStyle;rounded=0;orthogonalLoop=1;jettySize=auto;html=1;entryX=0;entryY=0.5;entryDx=0;entryDy=0;exitX=0.774;exitY=0.008;exitDx=0;exitDy=0;exitPerimeter=0;" edge="1" parent="1" source="59eEeYQ3Ve1wWNyKsLEn-16" target="tmGiLWiuq_pXPjT5mu-G-89">
          <mxGeometry relative="1" as="geometry">
            <Array as="points">
              <mxPoint x="1269" y="940" />
              <mxPoint x="1360" y="940" />
              <mxPoint x="1360" y="1054" />
            </Array>
          </mxGeometry>
        </mxCell>
        <mxCell id="59eEeYQ3Ve1wWNyKsLEn-16" value="&lt;div&gt;Opcode&lt;/div&gt;&lt;div&gt;Unit Decoder&lt;/div&gt;" style="rounded=1;whiteSpace=wrap;html=1;direction=south;fontStyle=1" vertex="1" parent="1">
          <mxGeometry x="1219" y="630" width="50" height="333" as="geometry" />
        </mxCell>
        <mxCell id="59eEeYQ3Ve1wWNyKsLEn-18" style="edgeStyle=orthogonalEdgeStyle;rounded=0;orthogonalLoop=1;jettySize=auto;html=1;entryX=0.533;entryY=1.025;entryDx=0;entryDy=0;entryPerimeter=0;" edge="1" parent="1" source="tmGiLWiuq_pXPjT5mu-G-3" target="59eEeYQ3Ve1wWNyKsLEn-16">
          <mxGeometry relative="1" as="geometry" />
        </mxCell>
        <mxCell id="59eEeYQ3Ve1wWNyKsLEn-76" style="edgeStyle=orthogonalEdgeStyle;rounded=0;orthogonalLoop=1;jettySize=auto;html=1;entryX=1;entryY=0.5;entryDx=0;entryDy=0;" edge="1" parent="1" source="59eEeYQ3Ve1wWNyKsLEn-20" target="tmGiLWiuq_pXPjT5mu-G-25">
          <mxGeometry relative="1" as="geometry">
            <Array as="points">
              <mxPoint x="110" y="1420" />
              <mxPoint x="110" y="950" />
              <mxPoint x="235" y="950" />
            </Array>
          </mxGeometry>
        </mxCell>
        <mxCell id="59eEeYQ3Ve1wWNyKsLEn-80" style="edgeStyle=orthogonalEdgeStyle;rounded=0;orthogonalLoop=1;jettySize=auto;html=1;entryX=0.75;entryY=1;entryDx=0;entryDy=0;" edge="1" parent="1" source="59eEeYQ3Ve1wWNyKsLEn-20" target="tmGiLWiuq_pXPjT5mu-G-3">
          <mxGeometry relative="1" as="geometry">
            <Array as="points">
              <mxPoint x="1230" y="1190" />
              <mxPoint x="1165" y="1190" />
            </Array>
          </mxGeometry>
        </mxCell>
        <mxCell id="59eEeYQ3Ve1wWNyKsLEn-81" style="edgeStyle=orthogonalEdgeStyle;rounded=0;orthogonalLoop=1;jettySize=auto;html=1;entryX=0.5;entryY=1;entryDx=0;entryDy=0;" edge="1" parent="1" source="59eEeYQ3Ve1wWNyKsLEn-20" target="2Y-T_WITprWG7Eant2bq-1">
          <mxGeometry relative="1" as="geometry">
            <Array as="points">
              <mxPoint x="709" y="1300" />
              <mxPoint x="709" y="1300" />
            </Array>
          </mxGeometry>
        </mxCell>
        <mxCell id="59eEeYQ3Ve1wWNyKsLEn-87" style="edgeStyle=orthogonalEdgeStyle;rounded=0;orthogonalLoop=1;jettySize=auto;html=1;entryX=0.5;entryY=1;entryDx=0;entryDy=0;" edge="1" parent="1" source="59eEeYQ3Ve1wWNyKsLEn-20" target="EPYlxIZpCImcWWyEMKS_-28">
          <mxGeometry relative="1" as="geometry">
            <Array as="points">
              <mxPoint x="2185" y="1290" />
              <mxPoint x="2185" y="1290" />
            </Array>
          </mxGeometry>
        </mxCell>
        <mxCell id="59eEeYQ3Ve1wWNyKsLEn-88" value="Write Safe?" style="edgeLabel;html=1;align=center;verticalAlign=middle;resizable=0;points=[];" connectable="0" vertex="1" parent="59eEeYQ3Ve1wWNyKsLEn-87">
          <mxGeometry x="-0.1797" y="1" relative="1" as="geometry">
            <mxPoint x="1" y="-170" as="offset" />
          </mxGeometry>
        </mxCell>
        <mxCell id="59eEeYQ3Ve1wWNyKsLEn-20" value="&lt;div&gt;Control Unit Logic&lt;/div&gt;&lt;div&gt;(Handles Stalls)&lt;/div&gt;" style="rounded=0;whiteSpace=wrap;html=1;fontStyle=1" vertex="1" parent="1">
          <mxGeometry x="480" y="1390" width="2230" height="60" as="geometry" />
        </mxCell>
        <mxCell id="59eEeYQ3Ve1wWNyKsLEn-27" value="inst_pkt" style="text;html=1;align=center;verticalAlign=middle;resizable=0;points=[];autosize=1;strokeColor=none;fillColor=none;" vertex="1" parent="1">
          <mxGeometry x="1280" y="769" width="60" height="30" as="geometry" />
        </mxCell>
        <mxCell id="59eEeYQ3Ve1wWNyKsLEn-28" value="inst_pkt" style="text;html=1;align=center;verticalAlign=middle;resizable=0;points=[];autosize=1;strokeColor=none;fillColor=none;" vertex="1" parent="1">
          <mxGeometry x="1280" y="819" width="60" height="30" as="geometry" />
        </mxCell>
        <mxCell id="59eEeYQ3Ve1wWNyKsLEn-29" value="inst_pkt" style="text;html=1;align=center;verticalAlign=middle;resizable=0;points=[];autosize=1;strokeColor=none;fillColor=none;" vertex="1" parent="1">
          <mxGeometry x="1280" y="655" width="60" height="30" as="geometry" />
        </mxCell>
        <mxCell id="59eEeYQ3Ve1wWNyKsLEn-30" value="inst_pkt" style="text;html=1;align=center;verticalAlign=middle;resizable=0;points=[];autosize=1;strokeColor=none;fillColor=none;" vertex="1" parent="1">
          <mxGeometry x="1280" y="933" width="60" height="30" as="geometry" />
        </mxCell>
        <mxCell id="59eEeYQ3Ve1wWNyKsLEn-31" value="Opcode" style="text;html=1;align=center;verticalAlign=middle;resizable=0;points=[];autosize=1;strokeColor=none;fillColor=none;rotation=270;" vertex="1" parent="1">
          <mxGeometry x="1160" y="765" width="70" height="30" as="geometry" />
        </mxCell>
        <mxCell id="59eEeYQ3Ve1wWNyKsLEn-34" value="" style="endArrow=classic;html=1;rounded=0;entryX=0.318;entryY=0.001;entryDx=0;entryDy=0;entryPerimeter=0;" edge="1" parent="1">
          <mxGeometry width="50" height="50" relative="1" as="geometry">
            <mxPoint x="1440" y="330" as="sourcePoint" />
            <mxPoint x="1440.2399999999998" y="500.7500000000001" as="targetPoint" />
          </mxGeometry>
        </mxCell>
        <mxCell id="59eEeYQ3Ve1wWNyKsLEn-35" value="" style="endArrow=none;html=1;rounded=0;" edge="1" parent="1">
          <mxGeometry width="50" height="50" relative="1" as="geometry">
            <mxPoint x="1270" y="330" as="sourcePoint" />
            <mxPoint x="1440" y="330" as="targetPoint" />
          </mxGeometry>
        </mxCell>
        <mxCell id="59eEeYQ3Ve1wWNyKsLEn-37" value="&lt;div&gt;Arch.&lt;/div&gt;&lt;div&gt;Source Data&lt;/div&gt;" style="text;html=1;align=center;verticalAlign=middle;resizable=0;points=[];autosize=1;strokeColor=none;fillColor=none;" vertex="1" parent="1">
          <mxGeometry x="1050" y="450" width="90" height="40" as="geometry" />
        </mxCell>
        <mxCell id="59eEeYQ3Ve1wWNyKsLEn-38" value="&lt;div&gt;Phys.&lt;/div&gt;&lt;div&gt;Source Data&lt;/div&gt;" style="text;html=1;align=center;verticalAlign=middle;resizable=0;points=[];autosize=1;strokeColor=none;fillColor=none;" vertex="1" parent="1">
          <mxGeometry x="1340" y="290" width="90" height="40" as="geometry" />
        </mxCell>
        <mxCell id="59eEeYQ3Ve1wWNyKsLEn-42" value="" style="shape=flexArrow;endArrow=classic;html=1;rounded=0;fillColor=#dae8fc;strokeColor=#6c8ebf;" edge="1" parent="1">
          <mxGeometry width="50" height="50" relative="1" as="geometry">
            <mxPoint x="1624" y="178.32999999999998" as="sourcePoint" />
            <mxPoint x="1624" y="1120" as="targetPoint" />
          </mxGeometry>
        </mxCell>
        <mxCell id="vEjdfM-KKYpxFgrzCALx-92" value="" style="shape=flexArrow;endArrow=classic;startArrow=classic;html=1;rounded=0;fillColor=#dae8fc;strokeColor=#6c8ebf;" edge="1" parent="1">
          <mxGeometry width="100" height="100" relative="1" as="geometry">
            <mxPoint x="1350" y="180" as="sourcePoint" />
            <mxPoint x="2840" y="180" as="targetPoint" />
          </mxGeometry>
        </mxCell>
        <mxCell id="vEjdfM-KKYpxFgrzCALx-93" value="COMMON DATA BUS (CDB) - Forwarding" style="edgeLabel;html=1;align=center;verticalAlign=middle;resizable=0;points=[];fontStyle=1;labelBackgroundColor=none;" connectable="0" vertex="1" parent="vEjdfM-KKYpxFgrzCALx-92">
          <mxGeometry x="0.0344" y="-2" relative="1" as="geometry">
            <mxPoint x="-21" y="-2" as="offset" />
          </mxGeometry>
        </mxCell>
        <mxCell id="59eEeYQ3Ve1wWNyKsLEn-48" value="{physical addr, value}" style="text;html=1;align=center;verticalAlign=middle;resizable=0;points=[];autosize=1;strokeColor=none;fillColor=none;" vertex="1" parent="1">
          <mxGeometry x="2030" y="180" width="140" height="30" as="geometry" />
        </mxCell>
        <mxCell id="59eEeYQ3Ve1wWNyKsLEn-49" value="Busy?" style="text;strokeColor=none;align=center;fillColor=none;html=1;verticalAlign=middle;whiteSpace=wrap;rounded=0;" vertex="1" parent="1">
          <mxGeometry x="1840" y="987" width="60" height="30" as="geometry" />
        </mxCell>
        <mxCell id="59eEeYQ3Ve1wWNyKsLEn-50" value="Busy?" style="text;strokeColor=none;align=center;fillColor=none;html=1;verticalAlign=middle;whiteSpace=wrap;rounded=0;" vertex="1" parent="1">
          <mxGeometry x="1830" y="745" width="60" height="30" as="geometry" />
        </mxCell>
        <mxCell id="59eEeYQ3Ve1wWNyKsLEn-51" value="Busy?" style="text;strokeColor=none;align=center;fillColor=none;html=1;verticalAlign=middle;whiteSpace=wrap;rounded=0;" vertex="1" parent="1">
          <mxGeometry x="1840" y="490" width="60" height="30" as="geometry" />
        </mxCell>
        <mxCell id="59eEeYQ3Ve1wWNyKsLEn-53" value="unit pkt" style="text;html=1;align=center;verticalAlign=middle;resizable=0;points=[];autosize=1;strokeColor=none;fillColor=none;" vertex="1" parent="1">
          <mxGeometry x="1630" y="527" width="60" height="30" as="geometry" />
        </mxCell>
        <mxCell id="59eEeYQ3Ve1wWNyKsLEn-54" style="edgeStyle=orthogonalEdgeStyle;rounded=0;orthogonalLoop=1;jettySize=auto;html=1;entryX=0.692;entryY=1.067;entryDx=0;entryDy=0;entryPerimeter=0;" edge="1" parent="1" source="9TAhi3XfBYmtLasGSoGz-10" target="hJbOz-DI_iZiivcrF6Y0-60">
          <mxGeometry relative="1" as="geometry" />
        </mxCell>
        <mxCell id="59eEeYQ3Ve1wWNyKsLEn-55" value="unit pkt" style="text;html=1;align=center;verticalAlign=middle;resizable=0;points=[];autosize=1;strokeColor=none;fillColor=none;" vertex="1" parent="1">
          <mxGeometry x="1650" y="630" width="60" height="30" as="geometry" />
        </mxCell>
        <mxCell id="59eEeYQ3Ve1wWNyKsLEn-61" style="edgeStyle=orthogonalEdgeStyle;rounded=0;orthogonalLoop=1;jettySize=auto;html=1;entryX=0.25;entryY=1;entryDx=0;entryDy=0;" edge="1" parent="1" source="wpYnhnTJWM2q-OIGQQ5s-16" target="hJbOz-DI_iZiivcrF6Y0-59">
          <mxGeometry relative="1" as="geometry" />
        </mxCell>
        <mxCell id="59eEeYQ3Ve1wWNyKsLEn-62" value="unit pkt" style="text;html=1;align=center;verticalAlign=middle;resizable=0;points=[];autosize=1;strokeColor=none;fillColor=none;" vertex="1" parent="1">
          <mxGeometry x="1660" y="870" width="60" height="30" as="geometry" />
        </mxCell>
        <mxCell id="59eEeYQ3Ve1wWNyKsLEn-63" style="edgeStyle=orthogonalEdgeStyle;rounded=0;orthogonalLoop=1;jettySize=auto;html=1;entryX=0.25;entryY=1;entryDx=0;entryDy=0;" edge="1" parent="1" source="tmGiLWiuq_pXPjT5mu-G-85" target="hJbOz-DI_iZiivcrF6Y0-58">
          <mxGeometry relative="1" as="geometry" />
        </mxCell>
        <mxCell id="59eEeYQ3Ve1wWNyKsLEn-64" value="unit pkt" style="text;html=1;align=center;verticalAlign=middle;resizable=0;points=[];autosize=1;strokeColor=none;fillColor=none;" vertex="1" parent="1">
          <mxGeometry x="1660" y="1116.5" width="60" height="30" as="geometry" />
        </mxCell>
        <mxCell id="hJbOz-DI_iZiivcrF6Y0-82" value="" style="endArrow=classic;html=1;rounded=0;exitX=1.011;exitY=-0.013;exitDx=0;exitDy=0;entryX=0.25;entryY=1;entryDx=0;entryDy=0;exitPerimeter=0;" edge="1" parent="1" source="wpYnhnTJWM2q-OIGQQ5s-30" target="hJbOz-DI_iZiivcrF6Y0-61">
          <mxGeometry width="50" height="50" relative="1" as="geometry">
            <mxPoint x="1860" y="470" as="sourcePoint" />
            <mxPoint x="1910" y="420" as="targetPoint" />
            <Array as="points">
              <mxPoint x="1690" y="550" />
              <mxPoint x="1690" y="401" />
            </Array>
          </mxGeometry>
        </mxCell>
        <mxCell id="59eEeYQ3Ve1wWNyKsLEn-71" style="edgeStyle=orthogonalEdgeStyle;rounded=0;orthogonalLoop=1;jettySize=auto;html=1;entryX=0;entryY=0.5;entryDx=0;entryDy=0;exitX=1;exitY=0.5;exitDx=0;exitDy=0;" edge="1" parent="1" source="59eEeYQ3Ve1wWNyKsLEn-65" target="tmGiLWiuq_pXPjT5mu-G-93">
          <mxGeometry relative="1" as="geometry" />
        </mxCell>
        <mxCell id="59eEeYQ3Ve1wWNyKsLEn-65" value="Wakeup Logic" style="rounded=1;whiteSpace=wrap;html=1;direction=west;fontStyle=1" vertex="1" parent="1">
          <mxGeometry x="1450" y="1150" width="120" height="60" as="geometry" />
        </mxCell>
        <mxCell id="59eEeYQ3Ve1wWNyKsLEn-67" style="edgeStyle=orthogonalEdgeStyle;rounded=0;orthogonalLoop=1;jettySize=auto;html=1;entryX=0.462;entryY=0.027;entryDx=0;entryDy=0;entryPerimeter=0;" edge="1" parent="1" source="59eEeYQ3Ve1wWNyKsLEn-65" target="59eEeYQ3Ve1wWNyKsLEn-20">
          <mxGeometry relative="1" as="geometry" />
        </mxCell>
        <mxCell id="59eEeYQ3Ve1wWNyKsLEn-68" value="" style="endArrow=none;html=1;rounded=0;" edge="1" parent="1">
          <mxGeometry width="50" height="50" relative="1" as="geometry">
            <mxPoint x="1490" y="1300" as="sourcePoint" />
            <mxPoint x="1530" y="1260" as="targetPoint" />
          </mxGeometry>
        </mxCell>
        <mxCell id="59eEeYQ3Ve1wWNyKsLEn-72" value="" style="endArrow=none;html=1;rounded=0;" edge="1" parent="1">
          <mxGeometry width="50" height="50" relative="1" as="geometry">
            <mxPoint x="1373" y="1157" as="sourcePoint" />
            <mxPoint x="1413" y="1117" as="targetPoint" />
          </mxGeometry>
        </mxCell>
        <mxCell id="59eEeYQ3Ve1wWNyKsLEn-78" value="Station Full?" style="rhombus;whiteSpace=wrap;html=1;" vertex="1" parent="1">
          <mxGeometry x="1250" y="1049" width="80" height="80" as="geometry" />
        </mxCell>
        <mxCell id="59eEeYQ3Ve1wWNyKsLEn-79" style="edgeStyle=orthogonalEdgeStyle;rounded=0;orthogonalLoop=1;jettySize=auto;html=1;" edge="1" parent="1" source="59eEeYQ3Ve1wWNyKsLEn-78">
          <mxGeometry relative="1" as="geometry">
            <mxPoint x="1290" y="1389" as="targetPoint" />
          </mxGeometry>
        </mxCell>
        <mxCell id="59eEeYQ3Ve1wWNyKsLEn-83" style="edgeStyle=orthogonalEdgeStyle;rounded=0;orthogonalLoop=1;jettySize=auto;html=1;entryX=0.5;entryY=0;entryDx=0;entryDy=0;" edge="1" parent="1" source="tmGiLWiuq_pXPjT5mu-G-85" target="59eEeYQ3Ve1wWNyKsLEn-78">
          <mxGeometry relative="1" as="geometry" />
        </mxCell>
        <mxCell id="59eEeYQ3Ve1wWNyKsLEn-84" value="" style="endArrow=none;html=1;rounded=0;" edge="1" parent="1">
          <mxGeometry width="50" height="50" relative="1" as="geometry">
            <mxPoint x="1310" y="1040" as="sourcePoint" />
            <mxPoint x="1350" y="1000" as="targetPoint" />
          </mxGeometry>
        </mxCell>
        <mxCell id="59eEeYQ3Ve1wWNyKsLEn-90" value="WB Logic" style="rounded=1;whiteSpace=wrap;html=1;direction=south;fontStyle=1" vertex="1" parent="1">
          <mxGeometry x="2660" y="340" width="60" height="930" as="geometry" />
        </mxCell>
        <mxCell id="59eEeYQ3Ve1wWNyKsLEn-94" style="edgeStyle=orthogonalEdgeStyle;rounded=0;orthogonalLoop=1;jettySize=auto;html=1;entryX=0.37;entryY=1.066;entryDx=0;entryDy=0;entryPerimeter=0;" edge="1" parent="1" source="hJbOz-DI_iZiivcrF6Y0-125" target="59eEeYQ3Ve1wWNyKsLEn-90">
          <mxGeometry relative="1" as="geometry" />
        </mxCell>
        <mxCell id="59eEeYQ3Ve1wWNyKsLEn-95" style="edgeStyle=orthogonalEdgeStyle;rounded=0;orthogonalLoop=1;jettySize=auto;html=1;entryX=0.639;entryY=1.029;entryDx=0;entryDy=0;entryPerimeter=0;" edge="1" parent="1" source="hJbOz-DI_iZiivcrF6Y0-124" target="59eEeYQ3Ve1wWNyKsLEn-90">
          <mxGeometry relative="1" as="geometry" />
        </mxCell>
        <mxCell id="59eEeYQ3Ve1wWNyKsLEn-96" style="edgeStyle=orthogonalEdgeStyle;rounded=0;orthogonalLoop=1;jettySize=auto;html=1;entryX=0.898;entryY=1.066;entryDx=0;entryDy=0;entryPerimeter=0;" edge="1" parent="1" source="hJbOz-DI_iZiivcrF6Y0-127" target="59eEeYQ3Ve1wWNyKsLEn-90">
          <mxGeometry relative="1" as="geometry" />
        </mxCell>
        <mxCell id="59eEeYQ3Ve1wWNyKsLEn-98" value="WB Pkt" style="text;html=1;align=center;verticalAlign=middle;resizable=0;points=[];autosize=1;strokeColor=none;fillColor=none;" vertex="1" parent="1">
          <mxGeometry x="2600" y="400" width="60" height="30" as="geometry" />
        </mxCell>
        <mxCell id="59eEeYQ3Ve1wWNyKsLEn-99" value="WB Pkt" style="text;html=1;align=center;verticalAlign=middle;resizable=0;points=[];autosize=1;strokeColor=none;fillColor=none;" vertex="1" parent="1">
          <mxGeometry x="2600" y="900" width="60" height="30" as="geometry" />
        </mxCell>
        <mxCell id="59eEeYQ3Ve1wWNyKsLEn-100" value="WB Pkt" style="text;html=1;align=center;verticalAlign=middle;resizable=0;points=[];autosize=1;strokeColor=none;fillColor=none;" vertex="1" parent="1">
          <mxGeometry x="2600" y="651" width="60" height="30" as="geometry" />
        </mxCell>
        <mxCell id="59eEeYQ3Ve1wWNyKsLEn-101" value="WB Pkt" style="text;html=1;align=center;verticalAlign=middle;resizable=0;points=[];autosize=1;strokeColor=none;fillColor=none;" vertex="1" parent="1">
          <mxGeometry x="2600" y="1146.5" width="60" height="30" as="geometry" />
        </mxCell>
        <mxCell id="59eEeYQ3Ve1wWNyKsLEn-108" value="" style="shape=flexArrow;endArrow=classic;html=1;rounded=0;" edge="1" parent="1">
          <mxGeometry width="50" height="50" relative="1" as="geometry">
            <mxPoint x="2689.41" y="1270" as="sourcePoint" />
            <mxPoint x="2690" y="1380" as="targetPoint" />
          </mxGeometry>
        </mxCell>
        <mxCell id="59eEeYQ3Ve1wWNyKsLEn-109" value="&lt;div&gt;Stall Func.&lt;/div&gt;&lt;div&gt;Unit&lt;/div&gt;" style="text;html=1;align=center;verticalAlign=middle;resizable=0;points=[];autosize=1;strokeColor=none;fillColor=none;" vertex="1" parent="1">
          <mxGeometry x="2690" y="1293" width="80" height="40" as="geometry" />
        </mxCell>
        <mxCell id="59eEeYQ3Ve1wWNyKsLEn-110" value="" style="shape=flexArrow;endArrow=classic;html=1;rounded=0;" edge="1" parent="1">
          <mxGeometry width="50" height="50" relative="1" as="geometry">
            <mxPoint x="1930" y="1390" as="sourcePoint" />
            <mxPoint x="1930" y="1300" as="targetPoint" />
          </mxGeometry>
        </mxCell>
        <mxCell id="59eEeYQ3Ve1wWNyKsLEn-111" value="&lt;div&gt;Stall Specified&lt;/div&gt;&lt;div&gt;Unit(s)&lt;/div&gt;" style="text;html=1;align=center;verticalAlign=middle;resizable=0;points=[];autosize=1;strokeColor=none;fillColor=none;" vertex="1" parent="1">
          <mxGeometry x="1930" y="1350" width="100" height="40" as="geometry" />
        </mxCell>
        <mxCell id="59eEeYQ3Ve1wWNyKsLEn-113" style="edgeStyle=orthogonalEdgeStyle;rounded=0;orthogonalLoop=1;jettySize=auto;html=1;" edge="1" parent="1" source="59eEeYQ3Ve1wWNyKsLEn-112">
          <mxGeometry relative="1" as="geometry">
            <mxPoint x="2790" y="190" as="targetPoint" />
          </mxGeometry>
        </mxCell>
        <mxCell id="59eEeYQ3Ve1wWNyKsLEn-112" value="&lt;div&gt;&lt;b&gt;WB &lt;br&gt;&lt;/b&gt;&lt;/div&gt;&lt;div&gt;&lt;b&gt;MUX&lt;/b&gt;&lt;/div&gt;" style="verticalLabelPosition=middle;verticalAlign=middle;html=1;shape=trapezoid;perimeter=trapezoidPerimeter;whiteSpace=wrap;size=0.23;arcSize=10;flipV=1;labelPosition=center;align=center;direction=south;" vertex="1" parent="1">
          <mxGeometry x="2720" y="350" width="30" height="910" as="geometry" />
        </mxCell>
        <mxCell id="59eEeYQ3Ve1wWNyKsLEn-114" value="WB Pkt" style="text;html=1;align=center;verticalAlign=middle;resizable=0;points=[];autosize=1;strokeColor=none;fillColor=none;" vertex="1" parent="1">
          <mxGeometry x="2750" y="799" width="60" height="30" as="geometry" />
        </mxCell>
        <mxCell id="59eEeYQ3Ve1wWNyKsLEn-154" style="edgeStyle=orthogonalEdgeStyle;rounded=0;orthogonalLoop=1;jettySize=auto;html=1;entryX=0.25;entryY=0;entryDx=0;entryDy=0;" edge="1" parent="1" source="59eEeYQ3Ve1wWNyKsLEn-119" target="tmGiLWiuq_pXPjT5mu-G-64">
          <mxGeometry relative="1" as="geometry" />
        </mxCell>
        <mxCell id="59eEeYQ3Ve1wWNyKsLEn-119" value="ROB Head" style="rounded=0;whiteSpace=wrap;html=1;fontStyle=1" vertex="1" parent="1">
          <mxGeometry x="2630" y="2" width="120" height="60" as="geometry" />
        </mxCell>
        <mxCell id="59eEeYQ3Ve1wWNyKsLEn-120" value="ROB Tail" style="rounded=0;whiteSpace=wrap;html=1;fontStyle=1" vertex="1" parent="1">
          <mxGeometry x="2630" y="82" width="120" height="60" as="geometry" />
        </mxCell>
        <mxCell id="59eEeYQ3Ve1wWNyKsLEn-124" style="edgeStyle=orthogonalEdgeStyle;rounded=0;orthogonalLoop=1;jettySize=auto;html=1;entryX=0.863;entryY=0;entryDx=0;entryDy=0;entryPerimeter=0;" edge="1" parent="1" source="59eEeYQ3Ve1wWNyKsLEn-120" target="tmGiLWiuq_pXPjT5mu-G-64">
          <mxGeometry relative="1" as="geometry" />
        </mxCell>
        <mxCell id="59eEeYQ3Ve1wWNyKsLEn-125" value="&lt;div&gt;For Allocate&lt;/div&gt;&lt;div&gt;Entry addr.&lt;/div&gt;" style="text;html=1;align=center;verticalAlign=middle;resizable=0;points=[];autosize=1;strokeColor=none;fillColor=none;" vertex="1" parent="1">
          <mxGeometry x="2530" y="73" width="90" height="40" as="geometry" />
        </mxCell>
        <mxCell id="59eEeYQ3Ve1wWNyKsLEn-127" style="edgeStyle=orthogonalEdgeStyle;rounded=0;orthogonalLoop=1;jettySize=auto;html=1;entryX=1;entryY=0.5;entryDx=0;entryDy=0;" edge="1" parent="1" source="59eEeYQ3Ve1wWNyKsLEn-126" target="59eEeYQ3Ve1wWNyKsLEn-120">
          <mxGeometry relative="1" as="geometry" />
        </mxCell>
        <mxCell id="59eEeYQ3Ve1wWNyKsLEn-126" value="&lt;div&gt;ROB Tail Next Logic&lt;/div&gt;&lt;div&gt;&lt;br&gt;&lt;/div&gt;" style="rounded=1;whiteSpace=wrap;html=1;direction=west;" vertex="1" parent="1">
          <mxGeometry x="2794" y="82" width="92" height="60" as="geometry" />
        </mxCell>
        <mxCell id="59eEeYQ3Ve1wWNyKsLEn-129" value="" style="endArrow=classic;html=1;rounded=0;" edge="1" parent="1">
          <mxGeometry width="50" height="50" relative="1" as="geometry">
            <mxPoint x="1620" y="240" as="sourcePoint" />
            <mxPoint x="1270" y="240" as="targetPoint" />
          </mxGeometry>
        </mxCell>
        <mxCell id="59eEeYQ3Ve1wWNyKsLEn-130" value="WB Pkt" style="edgeLabel;html=1;align=center;verticalAlign=middle;resizable=0;points=[];" connectable="0" vertex="1" parent="59eEeYQ3Ve1wWNyKsLEn-129">
          <mxGeometry x="-0.2509" relative="1" as="geometry">
            <mxPoint x="51" y="-10" as="offset" />
          </mxGeometry>
        </mxCell>
        <mxCell id="59eEeYQ3Ve1wWNyKsLEn-132" value="&lt;div&gt;Update Head&lt;/div&gt;&lt;div&gt;(Deallocate Entry)&lt;/div&gt;" style="text;html=1;align=center;verticalAlign=middle;resizable=0;points=[];autosize=1;strokeColor=none;fillColor=none;" vertex="1" parent="1">
          <mxGeometry x="3063" y="435" width="120" height="40" as="geometry" />
        </mxCell>
        <mxCell id="59eEeYQ3Ve1wWNyKsLEn-133" style="edgeStyle=orthogonalEdgeStyle;rounded=0;orthogonalLoop=1;jettySize=auto;html=1;entryX=-0.021;entryY=0.536;entryDx=0;entryDy=0;entryPerimeter=0;" edge="1" parent="1" source="vEjdfM-KKYpxFgrzCALx-174" target="EPYlxIZpCImcWWyEMKS_-48">
          <mxGeometry relative="1" as="geometry" />
        </mxCell>
        <mxCell id="59eEeYQ3Ve1wWNyKsLEn-137" value="" style="endArrow=classic;html=1;rounded=0;" edge="1" parent="1">
          <mxGeometry width="50" height="50" relative="1" as="geometry">
            <mxPoint x="3210" y="1000" as="sourcePoint" />
            <mxPoint x="3290" y="1000" as="targetPoint" />
          </mxGeometry>
        </mxCell>
        <mxCell id="59eEeYQ3Ve1wWNyKsLEn-138" value="To ARF" style="ellipse;shape=cloud;whiteSpace=wrap;html=1;fontStyle=1" vertex="1" parent="1">
          <mxGeometry x="3290" y="962" width="120" height="80" as="geometry" />
        </mxCell>
        <mxCell id="59eEeYQ3Ve1wWNyKsLEn-139" value="&lt;div&gt;From Free&lt;/div&gt;&lt;div&gt;List&lt;/div&gt;" style="ellipse;shape=cloud;whiteSpace=wrap;html=1;fontStyle=1" vertex="1" parent="1">
          <mxGeometry x="570" y="220" width="120" height="80" as="geometry" />
        </mxCell>
        <mxCell id="59eEeYQ3Ve1wWNyKsLEn-140" value="" style="endArrow=classic;html=1;rounded=0;entryX=0;entryY=0.174;entryDx=0;entryDy=0;entryPerimeter=0;" edge="1" parent="1" target="tmGiLWiuq_pXPjT5mu-G-7">
          <mxGeometry width="50" height="50" relative="1" as="geometry">
            <mxPoint x="680" y="260" as="sourcePoint" />
            <mxPoint x="730" y="210" as="targetPoint" />
          </mxGeometry>
        </mxCell>
        <mxCell id="59eEeYQ3Ve1wWNyKsLEn-141" value="Allocate arch rd -&amp;gt; phys rd" style="text;html=1;align=center;verticalAlign=middle;resizable=0;points=[];autosize=1;strokeColor=none;fillColor=none;" vertex="1" parent="1">
          <mxGeometry x="679" y="230" width="160" height="30" as="geometry" />
        </mxCell>
        <mxCell id="59eEeYQ3Ve1wWNyKsLEn-142" value="To ARF" style="ellipse;shape=cloud;whiteSpace=wrap;html=1;fontStyle=1" vertex="1" parent="1">
          <mxGeometry x="3280" y="601" width="120" height="80" as="geometry" />
        </mxCell>
        <mxCell id="59eEeYQ3Ve1wWNyKsLEn-145" style="edgeStyle=orthogonalEdgeStyle;rounded=0;orthogonalLoop=1;jettySize=auto;html=1;entryX=0.5;entryY=0;entryDx=0;entryDy=0;" edge="1" parent="1" source="59eEeYQ3Ve1wWNyKsLEn-144" target="tmGiLWiuq_pXPjT5mu-G-7">
          <mxGeometry relative="1" as="geometry" />
        </mxCell>
        <mxCell id="59eEeYQ3Ve1wWNyKsLEn-144" value="From RRF" style="ellipse;shape=cloud;whiteSpace=wrap;html=1;fontStyle=1" vertex="1" parent="1">
          <mxGeometry x="864" y="2" width="120" height="80" as="geometry" />
        </mxCell>
        <mxCell id="59eEeYQ3Ve1wWNyKsLEn-146" value="Update arch data &amp;lt;- phys data" style="text;html=1;align=center;verticalAlign=middle;resizable=0;points=[];autosize=1;strokeColor=none;fillColor=none;" vertex="1" parent="1">
          <mxGeometry x="920" y="97" width="190" height="30" as="geometry" />
        </mxCell>
        <mxCell id="59eEeYQ3Ve1wWNyKsLEn-149" style="edgeStyle=orthogonalEdgeStyle;rounded=0;orthogonalLoop=1;jettySize=auto;html=1;exitX=0.75;exitY=1;exitDx=0;exitDy=0;entryX=-0.01;entryY=0.139;entryDx=0;entryDy=0;entryPerimeter=0;" edge="1" parent="1" source="2Y-T_WITprWG7Eant2bq-2" target="vEjdfM-KKYpxFgrzCALx-58">
          <mxGeometry relative="1" as="geometry">
            <Array as="points">
              <mxPoint x="400" y="1049" />
            </Array>
          </mxGeometry>
        </mxCell>
        <mxCell id="59eEeYQ3Ve1wWNyKsLEn-151" style="edgeStyle=orthogonalEdgeStyle;rounded=0;orthogonalLoop=1;jettySize=auto;html=1;" edge="1" parent="1" source="tmGiLWiuq_pXPjT5mu-G-7">
          <mxGeometry relative="1" as="geometry">
            <mxPoint x="1120" y="550" as="targetPoint" />
            <Array as="points">
              <mxPoint x="1055" y="420" />
              <mxPoint x="1055" y="550" />
              <mxPoint x="1120" y="550" />
            </Array>
          </mxGeometry>
        </mxCell>
        <mxCell id="59eEeYQ3Ve1wWNyKsLEn-153" value="&lt;div&gt;Phys.&lt;/div&gt;&lt;div&gt;Source Regs&lt;/div&gt;" style="text;html=1;align=center;verticalAlign=middle;resizable=0;points=[];autosize=1;strokeColor=none;fillColor=none;" vertex="1" parent="1">
          <mxGeometry x="1520" y="430" width="90" height="40" as="geometry" />
        </mxCell>
      </root>
    </mxGraphModel>
  </diagram>
</mxfile>
